<?xml version="1.0" encoding="UTF-8" standalone="no"?>
<svg
   fill="#c7c7c7"
   version="1.1"
   id="Capa_1"
   viewBox="0 0 592.018 592.018"
   xml:space="preserve"
   sodipodi:docname="app.svg"
   inkscape:version="1.1 (c68e22c387, 2021-05-23)"
   xmlns:inkscape="http://www.inkscape.org/namespaces/inkscape"
   xmlns:sodipodi="http://sodipodi.sourceforge.net/DTD/sodipodi-0.dtd"
   xmlns="http://www.w3.org/2000/svg"
   xmlns:svg="http://www.w3.org/2000/svg"><defs
     id="defs17819"><inkscape:path-effect
       effect="fill_between_many"
       method="originald"
       linkedpaths="#g23255,0,1"
       id="path-effect24782" /></defs><sodipodi:namedview
     id="namedview17817"
     pagecolor="#000000"
     bordercolor="#666666"
     borderopacity="1.0"
     inkscape:pageshadow="2"
     inkscape:pageopacity="0"
     inkscape:pagecheckerboard="0"
     showgrid="false"
     inkscape:zoom="1.1009789"
     inkscape:cx="307.45367"
     inkscape:cy="252.95671"
     inkscape:window-width="1920"
     inkscape:window-height="1137"
     inkscape:window-x="1192"
     inkscape:window-y="289"
     inkscape:window-maximized="1"
     inkscape:current-layer="Capa_1" /><g
     id="SVGRepo_bgCarrier"
     stroke-width="0" /><g
     id="SVGRepo_tracerCarrier"
     stroke-linecap="round"
     stroke-linejoin="round" /><g
     id="SVGRepo_iconCarrier"
     transform="matrix(0.89508632,0,0,0.9179573,31.4485,22.712954)"> <g
   id="g17813"> <g
   id="g17811"> <g
   id="g17791">   </g> <g
   id="g17797"> <path
   id="circle17793"
   d="m 461.41699,93.852997 a 21.216,21.216 0 0 1 -0.0799,1.839119" />  </g> <g
   id="g17803">   </g> <g
   id="g17809">   </g> </g> </g> </g><path
     style="fill:#23cbff;stroke-width:1.4648;fill-opacity:1"
     d="M 265.75934,327.35094 124.24974,208.67606 297.37395,277.92344 463.02654,206.85873 325.95435,327.97451 295.96208,485.04391 Z"
     id="path27000"
     sodipodi:nodetypes="ccccccc" /><path
     d="M 560.23131,497.18308 V 98.304247 c 0,-29.630799 -35.55801,-67.834587 -64.42588,-67.834587 H 92.466478 c -28.867044,0 -64.424999,36.189997 -64.424999,65.820796 V 497.18308 c 0,29.63079 33.545941,63.807 62.412985,63.807 H 497.81744 c 28.86787,0 62.41387,-34.17621 62.41387,-63.807 z m -493.613996,0 V 152.10952 H 521.65548 v 345.07356 c 0,14.21113 -16.23001,24.21054 -23.83804,24.21054 H 90.454464 c -7.608912,0 -22.923411,-9.08487 -23.83715,-24.21054 z"
     id="path37157"
     sodipodi:nodetypes="ssssssssscccsssc"
     style="fill:#cccccc;stroke-width:1.00645" /></svg>
