<?xml version="1.0" encoding="UTF-8" standalone="no"?>
<svg
   fill="#c7c7c7"
   version="1.1"
   id="Capa_1"
   viewBox="0 0 593.84299 594.6448"
   xml:space="preserve"
   stroke="#c7c7c7"
   sodipodi:docname="apps.svg"
   inkscape:version="1.1 (c68e22c387, 2021-05-23)"
   width="593.84296"
   height="594.64478"
   xmlns:inkscape="http://www.inkscape.org/namespaces/inkscape"
   xmlns:sodipodi="http://sodipodi.sourceforge.net/DTD/sodipodi-0.dtd"
   xmlns="http://www.w3.org/2000/svg"
   xmlns:svg="http://www.w3.org/2000/svg"><defs
     id="defs18" /><sodipodi:namedview
     id="namedview16"
     pagecolor="#000000"
     bordercolor="#666666"
     borderopacity="1.0"
     inkscape:pageshadow="2"
     inkscape:pageopacity="0"
     inkscape:pagecheckerboard="0"
     showgrid="false"
     inkscape:zoom="0.90028971"
     inkscape:cx="317.12014"
     inkscape:cy="297.12658"
     inkscape:window-width="1920"
     inkscape:window-height="1137"
     inkscape:window-x="1192"
     inkscape:window-y="289"
     inkscape:window-maximized="1"
     inkscape:current-layer="Capa_1"
     units="px"
     fit-margin-top="0"
     fit-margin-left="0"
     fit-margin-right="0"
     fit-margin-bottom="0" /><g
     id="SVGRepo_bgCarrier"
     stroke-width="0"
     transform="translate(0.18416,0.973142)" /><g
     id="SVGRepo_tracerCarrier"
     stroke-linecap="round"
     stroke-linejoin="round"
     transform="translate(0.18416,0.973142)" /><g
     id="SVGRepo_iconCarrier"
     transform="matrix(1,0,0,1.0219908,0.18416,-4.3723919)"> <g
   id="g12"> <g
   id="g10"> <g
   id="g8">   </g> </g> </g> </g><path
     style="fill:#23cbff;fill-opacity:1;stroke:none;stroke-width:1.407"
     d="M 230.03239,380.70507 94.922719,266.02439 260.2172,332.94113 418.37798,264.26822 287.50502,381.30766 258.86919,533.09064 Z"
     id="path27000"
     sodipodi:nodetypes="ccccccc" /><path
     d="m 58.64,594.14481 h 400.985 c 32.059,0 60.8167,-26.765 58.141,-59.41956 v -40.40821 h 7.436 c 32.059,0 68.141,-34.65556 68.141,-67.41957 V 61.918542 C 593.343,29.154542 559.261,0.5 527.202,0.5 H 146.217 c -32.059,0 -66.14,34.655564 -66.14,67.418542 v 30.40923 H 64.64 c -32.058,0 -64.14,32.655558 -64.14,65.418538 v 370.97996 c 0,32.76298 26.082,59.41854 58.14,59.41854 z m 416.286,-83.82675 v 24.40821 c 0,8.63684 -6.852,15.63748 -15.301,15.63748 H 58.64 c -8.45,0 -15.355659,-7.00082 -15.3,-15.63748 V 214.38164 h 431.585 v 252.15434 43.78208 z M 122.917,65.918542 c 0,-8.63582 12.85,-21.63646 21.3,-21.63646 h 384.984 c 8.449,0 21.299,15.00064 21.299,23.63646 V 424.89952 c 0,8.6348 -12.85,21.63544 -21.299,21.63544 H 517.765 V 163.74631 c 0,-32.76298 -32.082,-65.418538 -64.141,-65.418538 H 122.917 Z"
     id="path525"
     sodipodi:nodetypes="ssscsssssscsssscsssscccccsssssscsscs"
     style="fill:#e6e6e6" /></svg>
