<?xml version="1.0" encoding="UTF-8" standalone="no"?>
<svg
   viewBox="0 0 24.000001 24"
   fill="none"
   version="1.1"
   id="svg509"
   sodipodi:docname="html5_form.svg"
   inkscape:version="1.1 (c68e22c387, 2021-05-23)"
   width="24"
   height="24"
   xmlns:inkscape="http://www.inkscape.org/namespaces/inkscape"
   xmlns:sodipodi="http://sodipodi.sourceforge.net/DTD/sodipodi-0.dtd"
   xmlns="http://www.w3.org/2000/svg"
   xmlns:svg="http://www.w3.org/2000/svg">
  <defs
     id="defs513" />
  <sodipodi:namedview
     id="namedview511"
     pagecolor="#000000"
     bordercolor="#666666"
     borderopacity="1.0"
     inkscape:pageshadow="2"
     inkscape:pageopacity="0"
     inkscape:pagecheckerboard="0"
     showgrid="false"
     inkscape:zoom="16.033731"
     inkscape:cx="-7.3283006"
     inkscape:cy="8.2014598"
     inkscape:window-width="1920"
     inkscape:window-height="1017"
     inkscape:window-x="3112"
     inkscape:window-y="394"
     inkscape:window-maximized="1"
     inkscape:current-layer="svg509"
     fit-margin-top="0"
     fit-margin-left="0"
     fit-margin-right="0"
     fit-margin-bottom="0" />
  <g
     id="SVGRepo_bgCarrier"
     stroke-width="0"
     transform="translate(-5.1104222,-0.00478179)" />
  <g
     id="SVGRepo_tracerCarrier"
     stroke-linecap="round"
     stroke-linejoin="round"
     transform="translate(-5.1104222,-0.00478179)" />
  <text
     xml:space="preserve"
     style="font-style:normal;font-weight:normal;font-size:40px;line-height:1.25;font-family:sans-serif;fill:#000000;fill-opacity:1;stroke:none"
     x="-0.78122282"
     y="11.224079"
     id="text2419"><tspan
       sodipodi:role="line"
       id="tspan2417"
       x="-0.78122282"
       y="11.224079" /></text>
  <text
     xml:space="preserve"
     style="font-size:8px;line-height:1.25;font-family:sans-serif"
     x="-3.2730963"
     y="22.34935"
     id="text13427"><tspan
       sodipodi:role="line"
       id="tspan13425"
       x="-3.2730963"
       y="22.34935" /></text>
  <text
     xml:space="preserve"
     style="font-size:18.6667px;line-height:1.25;font-family:'MS Outlook';-inkscape-font-specification:'MS Outlook'"
     x="-3.3496516"
     y="2.9043176"
     id="text22011"><tspan
       sodipodi:role="line"
       id="tspan22009"
       x="-3.3496516"
       y="2.9043176" /></text>
  <text
     xml:space="preserve"
     style="font-size:5.33333px;line-height:1.25;font-family:'MS Outlook';-inkscape-font-specification:'MS Outlook'"
     x="-2.9668753"
     y="14.923491"
     id="text25681"><tspan
       sodipodi:role="line"
       id="tspan25679"
       x="-2.9668753"
       y="14.923491" /></text>
  <text
     xml:space="preserve"
     style="font-size:5.33333px;line-height:25px;font-family:'MS Outlook';-inkscape-font-specification:'MS Outlook';fill:#c7c7c7;fill-opacity:1;stroke:none"
     x="-3.1965411"
     y="4.5119777"
     id="text38204"><tspan
       sodipodi:role="line"
       id="tspan38202"
       x="-3.1965411"
       y="4.5119777" /></text>
  <text
     xml:space="preserve"
     style="font-size:8px;line-height:37.5px;font-family:'MS Outlook';-inkscape-font-specification:'MS Outlook';fill:#cccccc"
     x="-3.2730963"
     y="14.693826"
     id="text52190"><tspan
       sodipodi:role="line"
       id="tspan52188"
       x="-3.2730963"
       y="14.693826" /></text>
  <text
     xml:space="preserve"
     style="font-size:10.6667px;line-height:50px;font-family:'MS Outlook';-inkscape-font-specification:'MS Outlook';fill:#cccccc"
     x="0.7843318"
     y="18.368477"
     id="text64866"><tspan
       sodipodi:role="line"
       id="tspan64864"
       x="0.7843318"
       y="18.368477" /></text>
  <text
     xml:space="preserve"
     style="font-size:5.33333px;line-height:25px;font-family:'MS Outlook';-inkscape-font-specification:'MS Outlook'"
     x="-4.4979801"
     y="-7.3540854"
     id="text71206"><tspan
       sodipodi:role="line"
       id="tspan71204"
       x="-4.4979801"
       y="-7.3540854" /></text>
  <text
     xml:space="preserve"
     style="font-size:10.6667px;line-height:50px;font-family:'MS Outlook';-inkscape-font-specification:'MS Outlook';fill:#cccccc"
     x="-4.0386486"
     y="15.382823"
     id="text73740"><tspan
       sodipodi:role="line"
       id="tspan73738"
       x="-4.0386486"
       y="15.382823" /></text>
  <text
     xml:space="preserve"
     style="font-size:10.6667px;line-height:50px;font-family:'MS Outlook';-inkscape-font-specification:'MS Outlook'"
     x="3.0809898"
     y="18.521587"
     id="text77928"><tspan
       sodipodi:role="line"
       id="tspan77926"
       x="3.0809898"
       y="18.521587" /></text>
  <path
     d="M 23.750038,20.769812 V 3.4351327 c 0,-1.2877129 -1.554838,-2.94798713 -2.817163,-2.94798713 H 3.2960369 c -1.2622736,0 -2.8171109,1.57275553 -2.8171109,2.86046843 v 17.422198 c 0,1.287687 1.4668548,2.77295 2.7291284,2.77295 H 21.020858 c 1.262299,0 2.72918,-1.485263 2.72918,-2.77295 z m -21.584301,0 V 5.7734276 h 19.89749 V 20.769812 c 0,0.617588 -0.709697,1.052141 -1.042369,1.052141 H 3.2080544 c -0.3326983,0 -1.0023628,-0.394818 -1.0423174,-1.052141 z"
     id="path37157"
     sodipodi:nodetypes="ssssssssscccsssc"
     style="fill:#cccccc;stroke-width:0.0438739" />
  <g
     id="SVGRepo_iconCarrier"
     transform="matrix(0.02952372,0,0,0.02952372,4.6282249,6.5683975)"
     style="fill:#ff5555">
    <style
       type="text/css"
       id="style5213"> .st0{fill:#c7c7c7;} </style>
    <g
       id="g5219"
       style="fill:#ff5555">
      <polygon
         class="st0"
         points="318.569,261.016 312.062,334.41 256,348.67 199.938,334.41 196.059,290.703 138.856,290.703 146.742,379.683 256,407.465 365.262,379.683 380.403,208.788 188.801,208.788 183.74,151.682 385.467,151.682 390.52,94.696 121.481,94.696 136.224,261.016 193.431,261.016 211.237,261.016 "
         id="polygon5215"
         style="fill:#ff5555" />
      <path
         class="st0"
         d="M 20.366,0 21.35,10.627 63.232,462.988 256,512 448.767,462.988 491.634,0 Z M 402.505,423.462 256,460.713 109.495,423.462 74.888,49.711 h 362.223 z"
         id="path5217"
         style="fill:#ff5555" />
    </g>
  </g>
</svg>
