<svg height="200px" width="200px" version="1.1" id="_x32_" xmlns="http://www.w3.org/2000/svg" xmlns:xlink="http://www.w3.org/1999/xlink" viewBox="0 0 512 512" xml:space="preserve" fill="#ffffff"><g id="SVGRepo_bgCarrier" stroke-width="0"></g><g id="SVGRepo_tracerCarrier" stroke-linecap="round" stroke-linejoin="round"></g><g id="SVGRepo_iconCarrier"> <style type="text/css"> .st0{fill:#c7c7c7;} </style> <g> <polygon class="st0" points="193.431,261.016 211.237,261.016 318.569,261.016 312.062,334.41 256,348.67 199.938,334.41 196.059,290.703 138.856,290.703 146.742,379.683 256,407.465 365.262,379.683 380.403,208.788 188.801,208.788 183.74,151.682 385.467,151.682 390.52,94.696 121.481,94.696 136.224,261.016 "></polygon> <path class="st0" d="M20.366,0l0.984,10.627l41.882,452.361L256,512l192.767-49.012L491.634,0H20.366z M402.505,423.462 L256,460.713l-146.505-37.251L74.888,49.711h362.223L402.505,423.462z"></path> </g> </g></svg>