<?xml version="1.0" encoding="UTF-8" standalone="no"?>
<svg
   height="200px"
   width="200px"
   version="1.1"
   id="_x32_"
   viewBox="0 0 512 512"
   xml:space="preserve"
   fill="#ffffff"
   sodipodi:docname="html5.svg"
   inkscape:version="1.1 (c68e22c387, 2021-05-23)"
   xmlns:inkscape="http://www.inkscape.org/namespaces/inkscape"
   xmlns:sodipodi="http://sodipodi.sourceforge.net/DTD/sodipodi-0.dtd"
   xmlns="http://www.w3.org/2000/svg"
   xmlns:svg="http://www.w3.org/2000/svg"><defs
     id="defs5225" /><sodipodi:namedview
     id="namedview5223"
     pagecolor="#ffffff"
     bordercolor="#666666"
     borderopacity="1.0"
     inkscape:pageshadow="2"
     inkscape:pageopacity="0.0"
     inkscape:pagecheckerboard="0"
     showgrid="false"
     inkscape:zoom="3.765"
     inkscape:cx="100"
     inkscape:cy="100"
     inkscape:window-width="1920"
     inkscape:window-height="1137"
     inkscape:window-x="1192"
     inkscape:window-y="289"
     inkscape:window-maximized="1"
     inkscape:current-layer="_x32_" /><g
     id="SVGRepo_bgCarrier"
     stroke-width="0" /><g
     id="SVGRepo_tracerCarrier"
     stroke-linecap="round"
     stroke-linejoin="round" /><g
     id="SVGRepo_iconCarrier"> <style
   type="text/css"
   id="style5213"> .st0{fill:#c7c7c7;} </style> <g
   id="g5219"> <polygon
   class="st0"
   points="193.431,261.016 211.237,261.016 318.569,261.016 312.062,334.41 256,348.67 199.938,334.41 196.059,290.703 138.856,290.703 146.742,379.683 256,407.465 365.262,379.683 380.403,208.788 188.801,208.788 183.74,151.682 385.467,151.682 390.52,94.696 121.481,94.696 136.224,261.016 "
   id="polygon5215"
   style="fill:#ff7f2a" /> <path
   class="st0"
   d="M20.366,0l0.984,10.627l41.882,452.361L256,512l192.767-49.012L491.634,0H20.366z M402.505,423.462 L256,460.713l-146.505-37.251L74.888,49.711h362.223L402.505,423.462z"
   id="path5217" /> </g> </g></svg>
