<?xml version="1.0" encoding="UTF-8" standalone="no"?>
<svg
   viewBox="0 0 24 24"
   fill="none"
   version="1.1"
   id="svg12380"
   sodipodi:docname="javascript.svg"
   inkscape:version="1.1 (c68e22c387, 2021-05-23)"
   xmlns:inkscape="http://www.inkscape.org/namespaces/inkscape"
   xmlns:sodipodi="http://sodipodi.sourceforge.net/DTD/sodipodi-0.dtd"
   xmlns="http://www.w3.org/2000/svg"
   xmlns:svg="http://www.w3.org/2000/svg">
  <defs
     id="defs12384" />
  <sodipodi:namedview
     id="namedview12382"
     pagecolor="#ffffff"
     bordercolor="#666666"
     borderopacity="1.0"
     inkscape:pageshadow="2"
     inkscape:pageopacity="0.0"
     inkscape:pagecheckerboard="0"
     showgrid="false"
     inkscape:zoom="31.375"
     inkscape:cx="12"
     inkscape:cy="12"
     inkscape:window-width="1920"
     inkscape:window-height="1137"
     inkscape:window-x="1192"
     inkscape:window-y="289"
     inkscape:window-maximized="1"
     inkscape:current-layer="svg12380" />
  <g
     id="SVGRepo_bgCarrier"
     stroke-width="0" />
  <g
     id="SVGRepo_tracerCarrier"
     stroke-linecap="round"
     stroke-linejoin="round" />
  <g
     id="SVGRepo_iconCarrier">
    <path
       fill-rule="evenodd"
       clip-rule="evenodd"
       d="M 9.29289,1.29289 C 9.48043,1.10536 9.73478,1 10,1 h 8 c 1.6569,0 3,1.34315 3,3 v 5 c 0,0.55228 -0.4477,1 -1,1 -0.5523,0 -1,-0.44772 -1,-1 V 4 C 19,3.44772 18.5523,3 18,3 h -7 v 5 c 0,0.55228 -0.4477,1 -1,1 H 5 v 11 c 0,0.5523 0.44772,1 1,1 h 1 c 0.55228,0 1,0.4477 1,1 0,0.5523 -0.44772,1 -1,1 H 6 C 4.34315,23 3,21.6569 3,20 V 8 C 3,7.73478 3.10536,7.48043 3.29289,7.29289 Z M 6.41421,7 H 9 V 4.41421 Z"
       fill="#c7c7c7"
       id="path12377"
       sodipodi:nodetypes="csssssssscsscsssssssscccccc" />
  </g>
  <g
     aria-label="JS"
     id="text1212"
     style="font-size:13.1461px;line-height:61.6222px;font-family:'[z] Arista';-inkscape-font-specification:'[z] Arista';stroke-width:1.23244">
    <path
       d="m 12.331345,11.619447 c 0.254157,0 0.468877,0.08764 0.644158,0.262922 0.175281,0.175281 0.262922,0.381237 0.262922,0.617866 v 4.522259 c -0.0088,0.420675 -0.09202,0.810676 -0.249775,1.170003 -0.148989,0.350563 -0.359327,0.661687 -0.631013,0.933373 -0.262922,0.262922 -0.578429,0.47326 -0.94652,0.631013 -0.359326,0.157753 -0.749327,0.241011 -1.170002,0.249776 -0.23663,0 -0.4425858,-0.08326 -0.6178671,-0.249776 C 9.4567306,19.590366 9.373472,19.380028 9.373472,19.12587 c 0,-0.245394 0.083259,-0.455732 0.2497759,-0.631013 0.1752813,-0.175281 0.3812371,-0.262922 0.6178671,-0.262922 0.166517,0 0.32427,-0.03067 0.473259,-0.09202 0.157753,-0.06135 0.289214,-0.144605 0.394383,-0.249776 0.113933,-0.113933 0.201574,-0.245394 0.262922,-0.394383 0.07011,-0.148991 0.105169,-0.306745 0.105169,-0.473262 v -4.522259 c 0,-0.236629 0.08326,-0.442585 0.249776,-0.617866 0.166517,-0.175281 0.368091,-0.262922 0.604721,-0.262922 z"
       style="fill:#cccccc"
       id="path3191"
       sodipodi:nodetypes="sssccscccscscscssss" />
    <path
       d="m 16.432923,13.381024 c -0.210337,0 -0.390001,0.07888 -0.53899,0.23663 -0.140225,0.148989 -0.214719,0.337417 -0.223483,0.565282 0.0088,0.201574 0.08326,0.376855 0.223483,0.525844 0.148989,0.140225 0.328653,0.210338 0.53899,0.210338 h 0.893935 c 0.324271,0 0.635395,0.06573 0.933373,0.197191 0.306743,0.131461 0.578429,0.315507 0.815059,0.552137 0.236629,0.227865 0.425057,0.499551 0.565282,0.815058 0.140225,0.306742 0.210337,0.635394 0.210337,0.985957 0,0.341799 -0.06573,0.666069 -0.197191,0.972812 -0.131461,0.306742 -0.311125,0.574046 -0.53899,0.801912 -0.227866,0.227865 -0.49517,0.411911 -0.801912,0.552136 -0.306743,0.131461 -0.635395,0.201573 -0.985958,0.210338 h -2.340006 c -0.262922,0 -0.477641,-0.08326 -0.644158,-0.249776 -0.166517,-0.175281 -0.249776,-0.390001 -0.249776,-0.644159 0,-0.23663 0.08326,-0.442586 0.249776,-0.617867 0.175281,-0.175281 0.390001,-0.262922 0.644158,-0.262922 h 2.340006 c 0.201574,0 0.381237,-0.07449 0.53899,-0.223484 0.157753,-0.148989 0.23663,-0.328652 0.23663,-0.53899 0,-0.219101 -0.07888,-0.398765 -0.23663,-0.53899 -0.148989,-0.148989 -0.32427,-0.227866 -0.525844,-0.23663 h -0.907081 c -0.333034,-0.0088 -0.652922,-0.07888 -0.959665,-0.210337 -0.306742,-0.131461 -0.578428,-0.306743 -0.815058,-0.525844 -0.227866,-0.227866 -0.411911,-0.49517 -0.552136,-0.801912 -0.140225,-0.306743 -0.210338,-0.639777 -0.210338,-0.999104 0,-0.324271 0.06573,-0.639777 0.197192,-0.946519 0.131461,-0.306743 0.311124,-0.578429 0.53899,-0.815058 0.236629,-0.23663 0.508315,-0.425058 0.815058,-0.565283 0.306742,-0.148989 0.635394,-0.223483 0.985957,-0.223483 h 2.340006 c 0.23663,0 0.438204,0.08764 0.604721,0.262922 0.166517,0.166517 0.25854,0.376855 0.276068,0.631012 0,0.254158 -0.08326,0.464496 -0.249776,0.631013 -0.166517,0.166517 -0.376855,0.249776 -0.631013,0.249776 z"
       style="fill:#cccccc"
       id="path3193"
       sodipodi:nodetypes="scccsscccsssccscscsssscccscsssccssccsss" />
  </g>
</svg>
