<?xml version="1.0" encoding="UTF-8" standalone="no"?>
<svg
   viewBox="0 0 24.000001 24"
   fill="none"
   version="1.1"
   id="svg509"
   sodipodi:docname="js_docs.svg"
   inkscape:version="1.1 (c68e22c387, 2021-05-23)"
   width="24"
   height="24"
   xmlns:inkscape="http://www.inkscape.org/namespaces/inkscape"
   xmlns:sodipodi="http://sodipodi.sourceforge.net/DTD/sodipodi-0.dtd"
   xmlns="http://www.w3.org/2000/svg"
   xmlns:svg="http://www.w3.org/2000/svg">
  <defs
     id="defs513" />
  <sodipodi:namedview
     id="namedview511"
     pagecolor="#000000"
     bordercolor="#666666"
     borderopacity="1.0"
     inkscape:pageshadow="2"
     inkscape:pageopacity="0"
     inkscape:pagecheckerboard="0"
     showgrid="false"
     inkscape:zoom="13.062462"
     inkscape:cx="-7.3110261"
     inkscape:cy="8.1531338"
     inkscape:window-width="1920"
     inkscape:window-height="1137"
     inkscape:window-x="1192"
     inkscape:window-y="289"
     inkscape:window-maximized="1"
     inkscape:current-layer="svg509"
     fit-margin-top="0"
     fit-margin-left="0"
     fit-margin-right="0"
     fit-margin-bottom="0" />
  <g
     id="SVGRepo_bgCarrier"
     stroke-width="0"
     transform="translate(-5.1104222,-0.00478179)" />
  <g
     id="SVGRepo_tracerCarrier"
     stroke-linecap="round"
     stroke-linejoin="round"
     transform="translate(-5.1104222,-0.00478179)" />
  <text
     xml:space="preserve"
     style="font-style:normal;font-weight:normal;font-size:40px;line-height:1.25;font-family:sans-serif;fill:#000000;fill-opacity:1;stroke:none"
     x="-0.78122282"
     y="11.224079"
     id="text2419"><tspan
       sodipodi:role="line"
       id="tspan2417"
       x="-0.78122282"
       y="11.224079" /></text>
  <text
     xml:space="preserve"
     style="font-size:8px;line-height:1.25;font-family:sans-serif"
     x="-3.2730963"
     y="22.34935"
     id="text13427"><tspan
       sodipodi:role="line"
       id="tspan13425"
       x="-3.2730963"
       y="22.34935" /></text>
  <text
     xml:space="preserve"
     style="font-size:18.6667px;line-height:1.25;font-family:'MS Outlook';-inkscape-font-specification:'MS Outlook'"
     x="-3.3496516"
     y="2.9043176"
     id="text22011"><tspan
       sodipodi:role="line"
       id="tspan22009"
       x="-3.3496516"
       y="2.9043176" /></text>
  <text
     xml:space="preserve"
     style="font-size:5.33333px;line-height:1.25;font-family:'MS Outlook';-inkscape-font-specification:'MS Outlook'"
     x="-2.9668753"
     y="14.923491"
     id="text25681"><tspan
       sodipodi:role="line"
       id="tspan25679"
       x="-2.9668753"
       y="14.923491" /></text>
  <text
     xml:space="preserve"
     style="font-size:5.33333px;line-height:25px;font-family:'MS Outlook';-inkscape-font-specification:'MS Outlook';fill:#c7c7c7;fill-opacity:1;stroke:none"
     x="-3.1965411"
     y="4.5119777"
     id="text38204"><tspan
       sodipodi:role="line"
       id="tspan38202"
       x="-3.1965411"
       y="4.5119777" /></text>
  <text
     xml:space="preserve"
     style="font-size:8px;line-height:37.5px;font-family:'MS Outlook';-inkscape-font-specification:'MS Outlook';fill:#cccccc"
     x="-3.2730963"
     y="14.693826"
     id="text52190"><tspan
       sodipodi:role="line"
       id="tspan52188"
       x="-3.2730963"
       y="14.693826" /></text>
  <text
     xml:space="preserve"
     style="font-size:10.6667px;line-height:50px;font-family:'MS Outlook';-inkscape-font-specification:'MS Outlook';fill:#cccccc"
     x="0.7843318"
     y="18.368477"
     id="text64866"><tspan
       sodipodi:role="line"
       id="tspan64864"
       x="0.7843318"
       y="18.368477" /></text>
  <text
     xml:space="preserve"
     style="font-size:5.33333px;line-height:25px;font-family:'MS Outlook';-inkscape-font-specification:'MS Outlook'"
     x="-4.4979801"
     y="-7.3540854"
     id="text71206"><tspan
       sodipodi:role="line"
       id="tspan71204"
       x="-4.4979801"
       y="-7.3540854" /></text>
  <text
     xml:space="preserve"
     style="font-size:10.6667px;line-height:50px;font-family:'MS Outlook';-inkscape-font-specification:'MS Outlook';fill:#cccccc"
     x="-4.0386486"
     y="15.382823"
     id="text73740"><tspan
       sodipodi:role="line"
       id="tspan73738"
       x="-4.0386486"
       y="15.382823" /></text>
  <text
     xml:space="preserve"
     style="font-size:10.6667px;line-height:50px;font-family:'MS Outlook';-inkscape-font-specification:'MS Outlook'"
     x="3.0809898"
     y="18.521587"
     id="text77928"><tspan
       sodipodi:role="line"
       id="tspan77926"
       x="3.0809898"
       y="18.521587" /></text>
  <g
     aria-label="SSL"
     transform="matrix(0.95284498,0,0,0.82655009,5.1957295,2.7720012)"
     id="text2958"
     style="font-size:10.2992px;line-height:5.34;font-family:'[z] Arista';-inkscape-font-specification:'[z] Arista';letter-spacing:0.19px;fill:#b3b3b3;stroke-width:0.965561">
    <path
       id="path33215"
       d="M 6.9442047,0.42801604 C 7.1487614,0.21018254 7.4261892,0.08779713 7.7154741,0.08779713 h 8.7258619 c 1.807235,0 3.272198,1.56019327 3.272198,3.48477827 v 5.8079638 c 0,0.6415248 -0.488321,1.1615928 -1.090733,1.1615928 -0.602412,0 -1.090733,-0.520068 -1.090733,-1.1615928 V 3.5725754 c 0,-0.6415245 -0.488321,-1.1615928 -1.090732,-1.1615928 H 8.8062055 v 5.8079637 c 0,0.6415245 -0.4883196,1.1615929 -1.0907314,1.1615929 H 2.2618094 V 22.158059 c 0,0.641548 0.488343,1.161593 1.0907328,1.161593 H 4.443275 c 0.6023899,0 1.0907328,0.520045 1.0907328,1.161593 0,0.641547 -0.4883429,1.161593 -1.0907328,1.161593 H 3.3525422 c -1.8071806,0 -3.27219834,-1.560135 -3.27219834,-3.484779 V 8.2189463 c 0,-0.3080775 0.11491961,-0.6035286 0.31946471,-0.8213737 z M 3.8043346,7.0573536 h 2.820406 V 4.0537188 Z"
       style="fill:#b3b3b3"
       sodipodi:nodetypes="csssssssscsscsssssssscccccc" />
  </g>
  <g
     aria-label="SSL"
     transform="matrix(0.95284498,0,0,0.87195619,0.12965619,-0.04484482)"
     id="text2958-0"
     style="font-size:10.2992px;line-height:5.34;font-family:'[z] Arista';-inkscape-font-specification:'[z] Arista';letter-spacing:0.19px;fill:#b3b3b3;stroke-width:0.965561">
    <path
       id="path33215-3"
       d="M 6.8638608,0.34021891 C 7.0684175,0.12238541 7.3458453,0 7.6351302,0 h 8.7258618 c 1.807235,0 3.272198,1.5601933 3.272198,3.4847783 h -2.181466 c 0,-0.6415245 -0.488321,-1.1615928 -1.090732,-1.1615928 H 8.7258616 v 5.8079637 c 0,0.6415245 -0.4883196,1.1615929 -1.0907314,1.1615929 H 2.1814655 V 22.070262 c 0,0.641548 0.488343,1.161593 1.0907328,1.161593 h 3.1897101 l 0,2.323186 H 3.2721983 C 1.4650177,25.555041 0,23.994906 0,22.070262 V 8.1311492 C 0,7.8230717 0.11491961,7.5276206 0.31946471,7.3097755 Z M 3.7239907,6.9695565 h 2.820406 V 3.9659217 Z"
       style="fill:#b3b3b3"
       sodipodi:nodetypes="cssccscsscssccssscccccc" />
  </g>
  <g
     aria-label="JS"
     transform="matrix(1.0054606,0,0,0.99456907,-0.22966575,-0.38277623)"
     id="text2954"
     style="font-size:13.8569px;line-height:64.9539px;font-family:'[z] Arista';-inkscape-font-specification:'[z] Arista';fill:#ffdd55;stroke-width:1.29908">
    <path
       d="m 13.166336,12.019058 c 0.2679,0 0.49423,0.09238 0.678988,0.277138 0.184759,0.184759 0.277138,0.40185 0.277138,0.651274 v 4.766774 c -0.0092,0.443421 -0.097,0.854509 -0.263281,1.233264 -0.157044,0.369517 -0.378755,0.697464 -0.665131,0.98384 -0.277138,0.277138 -0.609703,0.498848 -0.997697,0.665131 -0.378755,0.166283 -0.789843,0.254043 -1.233264,0.263281 -0.249424,0 -0.466516,-0.08776 -0.651274,-0.263281 -0.175521,-0.175521 -0.263281,-0.397231 -0.263281,-0.665131 0,-0.258662 0.08776,-0.480372 0.263281,-0.665131 0.184758,-0.184759 0.40185,-0.277138 0.651274,-0.277138 0.175521,0 0.341804,-0.03233 0.498848,-0.097 0.166283,-0.06467 0.304852,-0.152427 0.415707,-0.263281 0.120094,-0.120093 0.212473,-0.258662 0.277138,-0.415707 0.0739,-0.157045 0.110855,-0.323327 0.110855,-0.498848 V 12.94747 c 0,-0.249424 0.08776,-0.466515 0.263281,-0.651274 0.175522,-0.184759 0.387994,-0.277138 0.637418,-0.277138 z"
       id="path11165"
       style="fill:#ffdd55"
       sodipodi:nodetypes="sssccscccscscscssss" />
    <path
       d="m 17.489684,13.875883 c -0.22171,0 -0.411087,0.08314 -0.568133,0.249424 -0.147806,0.157045 -0.226329,0.35566 -0.235567,0.595846 0.0092,0.212473 0.08776,0.397231 0.235567,0.554276 0.157046,0.147807 0.346423,0.221711 0.568133,0.221711 h 0.942269 c 0.341804,0 0.669751,0.06928 0.98384,0.207853 0.323328,0.138569 0.609704,0.332566 0.859128,0.58199 0.249424,0.240187 0.44804,0.526563 0.595847,0.859128 0.147807,0.323328 0.22171,0.669751 0.22171,1.039268 0,0.360279 -0.06928,0.702083 -0.207853,1.02541 -0.138569,0.323328 -0.327947,0.605085 -0.568133,0.845271 -0.240186,0.240186 -0.521943,0.434183 -0.845271,0.58199 -0.323328,0.138569 -0.66975,0.212472 -1.039268,0.22171 h -2.466528 c -0.277138,0 -0.503467,-0.08776 -0.678988,-0.263281 -0.17552,-0.184759 -0.263281,-0.411088 -0.263281,-0.678988 0,-0.249424 0.08776,-0.466515 0.263281,-0.651274 0.184759,-0.184759 0.411088,-0.277138 0.678988,-0.277138 h 2.466528 c 0.212473,0 0.401851,-0.07852 0.568133,-0.235568 0.166283,-0.157045 0.249424,-0.346422 0.249424,-0.568132 0,-0.230949 -0.08314,-0.420326 -0.249424,-0.568133 -0.157044,-0.157045 -0.341803,-0.240187 -0.554276,-0.249425 h -0.956126 c -0.351041,-0.0092 -0.688226,-0.08314 -1.011554,-0.22171 -0.323327,-0.138569 -0.609703,-0.323327 -0.859127,-0.554276 -0.240186,-0.240186 -0.434183,-0.521943 -0.58199,-0.845271 -0.147807,-0.323327 -0.221711,-0.674369 -0.221711,-1.053124 0,-0.341804 0.06928,-0.67437 0.207854,-0.997697 0.138569,-0.323328 0.327947,-0.609704 0.568133,-0.859128 0.249424,-0.249424 0.5358,-0.44804 0.859128,-0.595847 0.323328,-0.157045 0.66975,-0.235567 1.039267,-0.235567 h 2.466528 c 0.249425,0 0.461898,0.09238 0.637418,0.277138 0.175521,0.175521 0.272519,0.397231 0.290995,0.665131 0,0.2679 -0.08776,0.48961 -0.263281,0.665131 -0.17552,0.175521 -0.397231,0.263282 -0.665132,0.263282 z"
       id="path11167"
       style="fill:#ffdd55"
       sodipodi:nodetypes="scccsscccsssccscscsssscccscsssccssccsss" />
  </g>
</svg>
