<?xml version="1.0" encoding="UTF-8" standalone="no"?>
<svg
   viewBox="0 0 24.000001 24"
   fill="none"
   version="1.1"
   id="svg509"
   sodipodi:docname="sql.svg"
   inkscape:version="1.1 (c68e22c387, 2021-05-23)"
   width="24"
   height="24"
   xmlns:inkscape="http://www.inkscape.org/namespaces/inkscape"
   xmlns:sodipodi="http://sodipodi.sourceforge.net/DTD/sodipodi-0.dtd"
   xmlns="http://www.w3.org/2000/svg"
   xmlns:svg="http://www.w3.org/2000/svg">
  <g
     aria-label="SQL"
     transform="scale(0.97716665,1.0233669)"
     id="text8254"
     style="font-size:13.0289px;line-height:61.0729px;font-family:'[z] Arista';-inkscape-font-specification:'[z] Arista';fill:#80e5ff;stroke-width:0.977167">
    <path
       d="m 8.7962073,12.958133 q -0.3126936,0 -0.5341849,0.23452 -0.2084624,0.221491 -0.2214913,0.560242 0.013029,0.299665 0.2214913,0.521156 0.2214913,0.208463 0.5341849,0.208463 h 0.8859652 q 0.4820695,0 0.9250515,0.195433 0.456012,0.195434 0.807792,0.547214 0.351781,0.338752 0.560243,0.807792 0.208462,0.456012 0.208462,0.977168 0,0.508127 -0.195433,0.964138 -0.195434,0.456012 -0.534185,0.794763 -0.338751,0.338751 -0.794763,0.547214 -0.456011,0.195433 -0.9771675,0.208462 H 7.3630283 q -0.390867,0 -0.6384161,-0.247549 -0.2475491,-0.260578 -0.2475491,-0.638416 0,-0.35178 0.2475491,-0.612358 0.260578,-0.260578 0.6384161,-0.260578 h 2.3191442 q 0.2996647,0 0.5341845,-0.221492 0.234521,-0.221491 0.234521,-0.534184 0,-0.325723 -0.234521,-0.534185 Q 9.9948661,16.254444 9.6952014,16.241415 H 8.7962073 Q 8.3011091,16.228387 7.8450976,16.032953 7.3890861,15.83752 7.0373058,15.511797 6.6985544,15.173046 6.490092,14.717034 6.2816296,14.261023 6.2816296,13.726838 q 0,-0.48207 0.1954335,-0.938081 0.1954335,-0.456012 0.5341849,-0.807792 0.3517803,-0.35178 0.8077918,-0.560243 0.4560115,-0.221491 0.9771675,-0.221491 h 2.3191447 q 0.35178,0 0.599329,0.260578 0.247549,0.247549 0.273607,0.625387 0,0.377838 -0.247549,0.625387 -0.247549,0.24755 -0.625387,0.24755 H 8.7962073 Z"
       id="path12308"
       style="fill:#80e5ff" />
    <path
       d="m 18.737251,16.554109 q 0,0.416925 -0.11726,0.781734 -0.104231,0.364809 -0.286636,0.690532 0.260578,0.260578 0.260578,0.625387 0,0.364809 -0.260578,0.638416 -0.260578,0.23452 -0.625387,0.23452 -0.35178,0 -0.612358,-0.23452 l -0.03909,-0.05212 q -0.612358,0.286636 -1.289861,0.286636 -0.377838,0 -0.729618,-0.0912 -0.351781,-0.0912 -0.651445,-0.247549 -0.703561,-0.377838 -1.146544,-1.06837 -0.429953,-0.703561 -0.429953,-1.563468 v -2.397318 q 0.01303,-0.5863 0.23452,-1.120485 0.23452,-0.547214 0.638416,-0.95111 0.403896,-0.403896 0.938081,-0.638416 0.534185,-0.247549 1.146543,-0.247549 0.599329,0 1.120485,0.23452 0.534185,0.221492 0.925052,0.625387 0.403896,0.403896 0.651445,0.938081 0.247549,0.534185 0.273607,1.159572 z m -4.169248,0 q 0,0.456012 0.299665,0.794763 0.299665,0.338751 0.742647,0.403896 -0.169376,-0.260578 -0.143318,-0.560243 0.02606,-0.312693 0.247549,-0.547214 0.260578,-0.247549 0.625388,-0.247549 0.364809,-0.01303 0.612358,0.247549 0,-0.02606 0,-0.03909 0.01303,-0.02606 0.01303,-0.05212 v -2.397318 q 0,-0.247549 -0.0912,-0.46904 -0.0912,-0.221491 -0.260578,-0.377838 -0.156346,-0.169376 -0.377838,-0.260578 -0.221491,-0.0912 -0.46904,-0.0912 -0.247549,0 -0.46904,0.0912 -0.221492,0.0912 -0.390867,0.260578 -0.156347,0.156347 -0.24755,0.377838 -0.0912,0.221491 -0.0912,0.46904 z"
       id="path12310"
       style="fill:#80e5ff" />
    <path
       d="m 23.649136,17.700652 q 0.35178,0 0.599329,0.260578 0.260578,0.247549 0.260578,0.612359 0,0.377838 -0.260578,0.638416 -0.247549,0.247549 -0.599329,0.247549 h -3.270254 q -0.377838,0 -0.625388,-0.247549 -0.247549,-0.260578 -0.273606,-0.638416 v -6.553537 q 0,-0.364809 0.260578,-0.612359 0.260578,-0.260578 0.638416,-0.260578 0.338751,0 0.599329,0.260578 0.273607,0.24755 0.273607,0.612359 v 5.6806 h 2.397318 z"
       id="path12312"
       style="fill:#80e5ff" />
  </g>
  <defs
     id="defs513" />
  <sodipodi:namedview
     id="namedview511"
     pagecolor="#000000"
     bordercolor="#666666"
     borderopacity="1.0"
     inkscape:pageshadow="2"
     inkscape:pageopacity="0"
     inkscape:pagecheckerboard="0"
     showgrid="false"
     inkscape:zoom="13.062462"
     inkscape:cx="1.9521588"
     inkscape:cy="10.909123"
     inkscape:window-width="1920"
     inkscape:window-height="1017"
     inkscape:window-x="3112"
     inkscape:window-y="394"
     inkscape:window-maximized="1"
     inkscape:current-layer="svg509"
     fit-margin-top="0"
     fit-margin-left="0"
     fit-margin-right="0"
     fit-margin-bottom="0" />
  <g
     id="SVGRepo_bgCarrier"
     stroke-width="0"
     transform="translate(-5.1104222,-0.00478179)" />
  <g
     id="SVGRepo_tracerCarrier"
     stroke-linecap="round"
     stroke-linejoin="round"
     transform="translate(-5.1104222,-0.00478179)" />
  <text
     xml:space="preserve"
     style="font-style:normal;font-weight:normal;font-size:40px;line-height:1.25;font-family:sans-serif;fill:#000000;fill-opacity:1;stroke:none"
     x="-0.78122282"
     y="11.224079"
     id="text2419"><tspan
       sodipodi:role="line"
       id="tspan2417"
       x="-0.78122282"
       y="11.224079" /></text>
  <text
     xml:space="preserve"
     style="font-size:8px;line-height:1.25;font-family:sans-serif"
     x="-3.2730963"
     y="22.34935"
     id="text13427"><tspan
       sodipodi:role="line"
       id="tspan13425"
       x="-3.2730963"
       y="22.34935" /></text>
  <text
     xml:space="preserve"
     style="font-size:18.6667px;line-height:1.25;font-family:'MS Outlook';-inkscape-font-specification:'MS Outlook'"
     x="-3.3496516"
     y="2.9043176"
     id="text22011"><tspan
       sodipodi:role="line"
       id="tspan22009"
       x="-3.3496516"
       y="2.9043176" /></text>
  <text
     xml:space="preserve"
     style="font-size:5.33333px;line-height:1.25;font-family:'MS Outlook';-inkscape-font-specification:'MS Outlook'"
     x="-2.9668753"
     y="14.923491"
     id="text25681"><tspan
       sodipodi:role="line"
       id="tspan25679"
       x="-2.9668753"
       y="14.923491" /></text>
  <text
     xml:space="preserve"
     style="font-size:5.33333px;line-height:25px;font-family:'MS Outlook';-inkscape-font-specification:'MS Outlook';fill:#c7c7c7;fill-opacity:1;stroke:none"
     x="-3.1965411"
     y="4.5119777"
     id="text38204"><tspan
       sodipodi:role="line"
       id="tspan38202"
       x="-3.1965411"
       y="4.5119777" /></text>
  <text
     xml:space="preserve"
     style="font-size:8px;line-height:37.5px;font-family:'MS Outlook';-inkscape-font-specification:'MS Outlook';fill:#cccccc"
     x="-3.2730963"
     y="14.693826"
     id="text52190"><tspan
       sodipodi:role="line"
       id="tspan52188"
       x="-3.2730963"
       y="14.693826" /></text>
  <text
     xml:space="preserve"
     style="font-size:10.6667px;line-height:50px;font-family:'MS Outlook';-inkscape-font-specification:'MS Outlook';fill:#cccccc"
     x="0.7843318"
     y="18.368477"
     id="text64866"><tspan
       sodipodi:role="line"
       id="tspan64864"
       x="0.7843318"
       y="18.368477" /></text>
  <text
     xml:space="preserve"
     style="font-size:5.33333px;line-height:25px;font-family:'MS Outlook';-inkscape-font-specification:'MS Outlook'"
     x="-4.4979801"
     y="-7.3540854"
     id="text71206"><tspan
       sodipodi:role="line"
       id="tspan71204"
       x="-4.4979801"
       y="-7.3540854" /></text>
  <text
     xml:space="preserve"
     style="font-size:10.6667px;line-height:50px;font-family:'MS Outlook';-inkscape-font-specification:'MS Outlook';fill:#cccccc"
     x="-4.0386486"
     y="15.382823"
     id="text73740"><tspan
       sodipodi:role="line"
       id="tspan73738"
       x="-4.0386486"
       y="15.382823" /></text>
  <text
     xml:space="preserve"
     style="font-size:10.6667px;line-height:50px;font-family:'MS Outlook';-inkscape-font-specification:'MS Outlook'"
     x="3.0809898"
     y="18.521587"
     id="text77928"><tspan
       sodipodi:role="line"
       id="tspan77926"
       x="3.0809898"
       y="18.521587" /></text>
  <g
     aria-label="SSL"
     transform="matrix(0.95284498,0,0,0.87195619,2.8990725,1.0717732)"
     id="text2958"
     style="font-size:10.2992px;line-height:5.34;font-family:'[z] Arista';-inkscape-font-specification:'[z] Arista';letter-spacing:0.19px;fill:#cccccc;stroke-width:0.965561">
    <path
       id="path33215"
       d="M 6.8638608,0.34021891 C 7.0684175,0.12238541 7.3458453,0 7.6351302,0 h 8.7258618 c 1.807235,0 3.272198,1.5601933 3.272198,3.4847783 v 5.8079638 c 0,0.6415244 -0.488321,1.1615929 -1.090733,1.1615929 -0.602412,0 -1.090733,-0.5200685 -1.090733,-1.1615929 V 3.4847783 c 0,-0.6415245 -0.488321,-1.1615928 -1.090732,-1.1615928 H 8.7258616 v 5.8079637 c 0,0.6415245 -0.4883196,1.1615929 -1.0907314,1.1615929 H 2.1814655 V 22.070262 c 0,0.641548 0.488343,1.161593 1.0907328,1.161593 h 1.0907328 c 0.6023899,0 1.0907328,0.520045 1.0907328,1.161593 0,0.641547 -0.4883429,1.161593 -1.0907328,1.161593 H 3.2721983 C 1.4650177,25.555041 0,23.994906 0,22.070262 V 8.1311492 C 0,7.8230717 0.11491961,7.5276206 0.31946471,7.3097755 Z M 3.7239907,6.9695565 h 2.820406 V 3.9659217 Z"
       style="fill:#cccccc"
       sodipodi:nodetypes="csssssssscsscsssssssscccccc" />
  </g>
</svg>
