<?xml version="1.0" encoding="UTF-8" standalone="no"?>
<svg
   viewBox="0 0 24.000001 24"
   fill="none"
   version="1.1"
   id="svg509"
   sodipodi:docname="sql_docs.svg"
   inkscape:version="1.1 (c68e22c387, 2021-05-23)"
   width="24"
   height="24"
   xmlns:inkscape="http://www.inkscape.org/namespaces/inkscape"
   xmlns:sodipodi="http://sodipodi.sourceforge.net/DTD/sodipodi-0.dtd"
   xmlns="http://www.w3.org/2000/svg"
   xmlns:svg="http://www.w3.org/2000/svg">
  <defs
     id="defs513" />
  <sodipodi:namedview
     id="namedview511"
     pagecolor="#000000"
     bordercolor="#666666"
     borderopacity="1.0"
     inkscape:pageshadow="2"
     inkscape:pageopacity="0"
     inkscape:pagecheckerboard="0"
     showgrid="false"
     inkscape:zoom="13.062462"
     inkscape:cx="-7.3110261"
     inkscape:cy="8.1531338"
     inkscape:window-width="1920"
     inkscape:window-height="1137"
     inkscape:window-x="1192"
     inkscape:window-y="289"
     inkscape:window-maximized="1"
     inkscape:current-layer="svg509"
     fit-margin-top="0"
     fit-margin-left="0"
     fit-margin-right="0"
     fit-margin-bottom="0" />
  <g
     id="SVGRepo_bgCarrier"
     stroke-width="0"
     transform="translate(-5.1104222,-0.00478179)" />
  <g
     id="SVGRepo_tracerCarrier"
     stroke-linecap="round"
     stroke-linejoin="round"
     transform="translate(-5.1104222,-0.00478179)" />
  <text
     xml:space="preserve"
     style="font-style:normal;font-weight:normal;font-size:40px;line-height:1.25;font-family:sans-serif;fill:#000000;fill-opacity:1;stroke:none"
     x="-0.78122282"
     y="11.224079"
     id="text2419"><tspan
       sodipodi:role="line"
       id="tspan2417"
       x="-0.78122282"
       y="11.224079" /></text>
  <text
     xml:space="preserve"
     style="font-size:8px;line-height:1.25;font-family:sans-serif"
     x="-3.2730963"
     y="22.34935"
     id="text13427"><tspan
       sodipodi:role="line"
       id="tspan13425"
       x="-3.2730963"
       y="22.34935" /></text>
  <text
     xml:space="preserve"
     style="font-size:18.6667px;line-height:1.25;font-family:'MS Outlook';-inkscape-font-specification:'MS Outlook'"
     x="-3.3496516"
     y="2.9043176"
     id="text22011"><tspan
       sodipodi:role="line"
       id="tspan22009"
       x="-3.3496516"
       y="2.9043176" /></text>
  <text
     xml:space="preserve"
     style="font-size:5.33333px;line-height:1.25;font-family:'MS Outlook';-inkscape-font-specification:'MS Outlook'"
     x="-2.9668753"
     y="14.923491"
     id="text25681"><tspan
       sodipodi:role="line"
       id="tspan25679"
       x="-2.9668753"
       y="14.923491" /></text>
  <text
     xml:space="preserve"
     style="font-size:5.33333px;line-height:25px;font-family:'MS Outlook';-inkscape-font-specification:'MS Outlook';fill:#c7c7c7;fill-opacity:1;stroke:none"
     x="-3.1965411"
     y="4.5119777"
     id="text38204"><tspan
       sodipodi:role="line"
       id="tspan38202"
       x="-3.1965411"
       y="4.5119777" /></text>
  <text
     xml:space="preserve"
     style="font-size:8px;line-height:37.5px;font-family:'MS Outlook';-inkscape-font-specification:'MS Outlook';fill:#cccccc"
     x="-3.2730963"
     y="14.693826"
     id="text52190"><tspan
       sodipodi:role="line"
       id="tspan52188"
       x="-3.2730963"
       y="14.693826" /></text>
  <text
     xml:space="preserve"
     style="font-size:10.6667px;line-height:50px;font-family:'MS Outlook';-inkscape-font-specification:'MS Outlook';fill:#cccccc"
     x="0.7843318"
     y="18.368477"
     id="text64866"><tspan
       sodipodi:role="line"
       id="tspan64864"
       x="0.7843318"
       y="18.368477" /></text>
  <text
     xml:space="preserve"
     style="font-size:5.33333px;line-height:25px;font-family:'MS Outlook';-inkscape-font-specification:'MS Outlook'"
     x="-4.4979801"
     y="-7.3540854"
     id="text71206"><tspan
       sodipodi:role="line"
       id="tspan71204"
       x="-4.4979801"
       y="-7.3540854" /></text>
  <text
     xml:space="preserve"
     style="font-size:10.6667px;line-height:50px;font-family:'MS Outlook';-inkscape-font-specification:'MS Outlook';fill:#cccccc"
     x="-4.0386486"
     y="15.382823"
     id="text73740"><tspan
       sodipodi:role="line"
       id="tspan73738"
       x="-4.0386486"
       y="15.382823" /></text>
  <text
     xml:space="preserve"
     style="font-size:10.6667px;line-height:50px;font-family:'MS Outlook';-inkscape-font-specification:'MS Outlook'"
     x="3.0809898"
     y="18.521587"
     id="text77928"><tspan
       sodipodi:role="line"
       id="tspan77926"
       x="3.0809898"
       y="18.521587" /></text>
  <g
     aria-label="SSL"
     transform="matrix(0.95284498,0,0,0.82435744,5.1957295,2.8282268)"
     id="text2958"
     style="font-size:10.2992px;line-height:5.34;font-family:'[z] Arista';-inkscape-font-specification:'[z] Arista';letter-spacing:0.19px;fill:#b3b3b3;stroke-width:0.965561">
    <path
       id="path33215"
       d="M 6.9442047,0.42801604 C 7.1487614,0.21018254 7.4261892,0.08779713 7.7154741,0.08779713 h 8.7258619 c 1.807235,0 3.272198,1.56019327 3.272198,3.48477827 v 5.8079638 c 0,0.6415248 -0.488321,1.1615928 -1.090733,1.1615928 -0.602412,0 -1.090733,-0.520068 -1.090733,-1.1615928 V 3.5725754 c 0,-0.6415245 -0.488321,-1.1615928 -1.090732,-1.1615928 H 8.8062055 v 5.8079637 c 0,0.6415245 -0.4883196,1.1615929 -1.0907314,1.1615929 H 2.2618094 V 22.158059 c 0,0.641548 0.488343,1.161593 1.0907328,1.161593 H 4.443275 c 0.6023899,0 1.0907328,0.520045 1.0907328,1.161593 0,0.641547 -0.4883429,1.161593 -1.0907328,1.161593 H 3.3525422 c -1.8071806,0 -3.27219834,-1.560135 -3.27219834,-3.484779 V 8.2189463 c 0,-0.3080775 0.11491961,-0.6035286 0.31946471,-0.8213737 z M 3.8043346,7.0573536 h 2.820406 V 4.0537188 Z"
       style="fill:#b3b3b3"
       sodipodi:nodetypes="csssssssscsscsssssssscccccc" />
  </g>
  <g
     aria-label="SSL"
     transform="matrix(0.95284498,0,0,0.87195619,0.12965619,-0.04484482)"
     id="text2958-0"
     style="font-size:10.2992px;line-height:5.34;font-family:'[z] Arista';-inkscape-font-specification:'[z] Arista';letter-spacing:0.19px;fill:#b3b3b3;stroke-width:0.965561">
    <path
       id="path33215-3"
       d="M 6.8638608,0.34021891 C 7.0684175,0.12238541 7.3458453,0 7.6351302,0 h 8.7258618 c 1.807235,0 3.272198,1.5601933 3.272198,3.4847783 h -2.181466 c 0,-0.6415245 -0.488321,-1.1615928 -1.090732,-1.1615928 H 8.7258616 v 5.8079637 c 0,0.6415245 -0.4883196,1.1615929 -1.0907314,1.1615929 H 2.1814655 V 22.070262 c 0,0.641548 0.488343,1.161593 1.0907328,1.161593 h 3.1897101 l 0,2.323186 H 3.2721983 C 1.4650177,25.555041 0,23.994906 0,22.070262 V 8.1311492 C 0,7.8230717 0.11491961,7.5276206 0.31946471,7.3097755 Z M 3.7239907,6.9695565 h 2.820406 V 3.9659217 Z"
       style="fill:#b3b3b3"
       sodipodi:nodetypes="cssccscsscssccssscccccc" />
  </g>
  <g
     aria-label="SQL"
     transform="matrix(0.96701178,0,0,0.99456906,0.91335596,0.02886514)"
     id="text2954-0"
     style="font-size:11.5824px;line-height:54.2923px;font-family:'[z] Arista';-inkscape-font-specification:'[z] Arista';fill:#80e5ff;stroke-width:1.08585">
    <path
       d="m 9.8546218,13.944605 q -0.2779777,0 -0.4748785,0.208483 -0.1853184,0.196901 -0.1969008,0.498044 0.011582,0.266395 0.1969008,0.463296 0.1969008,0.185318 0.4748785,0.185318 h 0.7876032 q 0.428549,0 0.82235,0.173736 0.405384,0.173736 0.718109,0.486461 0.312725,0.301142 0.498043,0.718109 0.185319,0.405384 0.185319,0.86868 0,0.451713 -0.173736,0.857097 -0.173736,0.405384 -0.474879,0.706527 -0.301142,0.301142 -0.706526,0.486461 -0.405384,0.173736 -0.86868,0.185318 H 8.5805577 q -0.347472,0 -0.5675376,-0.220066 -0.2200656,-0.231648 -0.2200656,-0.567537 0,-0.312725 0.2200656,-0.544373 0.231648,-0.231648 0.5675376,-0.231648 h 2.0616673 q 0.266395,0 0.474878,-0.196901 0.208484,-0.196901 0.208484,-0.474878 0,-0.28956 -0.208484,-0.474879 -0.1969,-0.1969 -0.463296,-0.208483 H 9.8546218 Q 9.4144905,16.851788 9.0091065,16.678052 8.6037225,16.504316 8.2909977,16.214756 7.9898553,15.913613 7.8045369,15.508229 7.6192185,15.102845 7.6192185,14.627967 q 0,-0.428549 0.173736,-0.833933 0.173736,-0.405384 0.4748784,-0.718109 0.3127248,-0.312725 0.7181088,-0.498043 0.405384,-0.196901 0.8686801,-0.196901 h 2.0616672 q 0.312725,0 0.53279,0.231648 0.220066,0.220066 0.243231,0.555955 0,0.33589 -0.220066,0.555956 -0.220065,0.220065 -0.555955,0.220065 z"
       id="path16056"
       style="fill:#80e5ff" />
    <path
       d="m 18.691987,17.141348 q 0,0.370637 -0.104242,0.694944 -0.09266,0.324307 -0.254812,0.613867 0.231648,0.231648 0.231648,0.555955 0,0.324307 -0.231648,0.567538 -0.231648,0.208483 -0.555956,0.208483 -0.312724,0 -0.544372,-0.208483 l -0.03475,-0.04633 q -0.544372,0.254813 -1.146657,0.254813 -0.33589,0 -0.648615,-0.08108 -0.312725,-0.08108 -0.57912,-0.220065 -0.625449,-0.33589 -1.019251,-0.949757 -0.382219,-0.62545 -0.382219,-1.389888 v -2.131162 q 0.01158,-0.521208 0.208483,-0.996086 0.208483,-0.486461 0.567538,-0.845516 0.359054,-0.359054 0.833932,-0.567537 0.474879,-0.220066 1.019252,-0.220066 0.53279,0 0.996086,0.208483 0.474879,0.196901 0.822351,0.555956 0.359054,0.359054 0.57912,0.833932 0.220065,0.474879 0.24323,1.030834 z m -3.706368,0 q 0,0.405384 0.266395,0.706526 0.266395,0.301143 0.660197,0.359055 -0.150571,-0.231648 -0.127407,-0.498044 0.02317,-0.277977 0.220066,-0.48646 0.231648,-0.220066 0.555955,-0.220066 0.324308,-0.01158 0.544373,0.220066 0,-0.02317 0,-0.03475 0.01158,-0.02316 0.01158,-0.04633 v -2.131162 q 0,-0.220066 -0.08108,-0.416966 -0.08108,-0.196901 -0.231648,-0.33589 -0.138989,-0.150571 -0.33589,-0.231648 -0.196901,-0.08108 -0.416966,-0.08108 -0.220066,0 -0.416967,0.08108 -0.196901,0.08108 -0.347472,0.231648 -0.138989,0.138989 -0.220065,0.33589 -0.08108,0.1969 -0.08108,0.416966 z"
       id="path16058"
       style="fill:#80e5ff" />
    <path
       d="m 23.058542,18.160599 q 0.312725,0 0.53279,0.231648 0.231648,0.220066 0.231648,0.544373 0,0.335889 -0.231648,0.567537 -0.220065,0.220066 -0.53279,0.220066 h -2.907183 q -0.335889,0 -0.555955,-0.220066 -0.220066,-0.231648 -0.24323,-0.567537 v -5.825948 q 0,-0.324307 0.231648,-0.544372 0.231648,-0.231648 0.567537,-0.231648 0.301143,0 0.532791,0.231648 0.24323,0.220065 0.24323,0.544372 v 5.049927 z"
       id="path16060"
       style="fill:#80e5ff" />
  </g>
</svg>
