<?xml version="1.0" encoding="UTF-8" standalone="no"?>
<svg
   viewBox="0 0 24.000001 24"
   fill="none"
   version="1.1"
   id="svg509"
   sodipodi:docname="ssl.svg"
   inkscape:version="1.1 (c68e22c387, 2021-05-23)"
   width="24"
   height="24"
   xmlns:inkscape="http://www.inkscape.org/namespaces/inkscape"
   xmlns:sodipodi="http://sodipodi.sourceforge.net/DTD/sodipodi-0.dtd"
   xmlns="http://www.w3.org/2000/svg"
   xmlns:svg="http://www.w3.org/2000/svg">
  <defs
     id="defs513" />
  <sodipodi:namedview
     id="namedview511"
     pagecolor="#000000"
     bordercolor="#666666"
     borderopacity="1.0"
     inkscape:pageshadow="2"
     inkscape:pageopacity="0"
     inkscape:pagecheckerboard="0"
     showgrid="false"
     inkscape:zoom="13.062462"
     inkscape:cx="-7.2727484"
     inkscape:cy="8.1531338"
     inkscape:window-width="1271"
     inkscape:window-height="1003"
     inkscape:window-x="1531"
     inkscape:window-y="438"
     inkscape:window-maximized="0"
     inkscape:current-layer="svg509"
     fit-margin-top="0"
     fit-margin-left="0"
     fit-margin-right="0"
     fit-margin-bottom="0" />
  <g
     id="SVGRepo_bgCarrier"
     stroke-width="0"
     transform="translate(-5.1104222,-0.00478179)" />
  <g
     id="SVGRepo_tracerCarrier"
     stroke-linecap="round"
     stroke-linejoin="round"
     transform="translate(-5.1104222,-0.00478179)" />
  <text
     xml:space="preserve"
     style="font-style:normal;font-weight:normal;font-size:40px;line-height:1.25;font-family:sans-serif;fill:#000000;fill-opacity:1;stroke:none"
     x="-0.78122282"
     y="11.224079"
     id="text2419"><tspan
       sodipodi:role="line"
       id="tspan2417"
       x="-0.78122282"
       y="11.224079" /></text>
  <text
     xml:space="preserve"
     style="font-size:8px;line-height:1.25;font-family:sans-serif"
     x="-3.2730963"
     y="22.34935"
     id="text13427"><tspan
       sodipodi:role="line"
       id="tspan13425"
       x="-3.2730963"
       y="22.34935" /></text>
  <text
     xml:space="preserve"
     style="font-size:18.6667px;line-height:1.25;font-family:'MS Outlook';-inkscape-font-specification:'MS Outlook'"
     x="-3.3496516"
     y="2.9043176"
     id="text22011"><tspan
       sodipodi:role="line"
       id="tspan22009"
       x="-3.3496516"
       y="2.9043176" /></text>
  <text
     xml:space="preserve"
     style="font-size:5.33333px;line-height:1.25;font-family:'MS Outlook';-inkscape-font-specification:'MS Outlook'"
     x="-2.9668753"
     y="14.923491"
     id="text25681"><tspan
       sodipodi:role="line"
       id="tspan25679"
       x="-2.9668753"
       y="14.923491" /></text>
  <text
     xml:space="preserve"
     style="font-size:5.33333px;line-height:25px;font-family:'MS Outlook';-inkscape-font-specification:'MS Outlook';fill:#c7c7c7;fill-opacity:1;stroke:none"
     x="-3.1965411"
     y="4.5119777"
     id="text38204"><tspan
       sodipodi:role="line"
       id="tspan38202"
       x="-3.1965411"
       y="4.5119777" /></text>
  <text
     xml:space="preserve"
     style="font-size:8px;line-height:37.5px;font-family:'MS Outlook';-inkscape-font-specification:'MS Outlook';fill:#cccccc"
     x="-3.2730963"
     y="14.693826"
     id="text52190"><tspan
       sodipodi:role="line"
       id="tspan52188"
       x="-3.2730963"
       y="14.693826" /></text>
  <text
     xml:space="preserve"
     style="font-size:10.6667px;line-height:50px;font-family:'MS Outlook';-inkscape-font-specification:'MS Outlook';fill:#cccccc"
     x="0.7843318"
     y="18.368477"
     id="text64866"><tspan
       sodipodi:role="line"
       id="tspan64864"
       x="0.7843318"
       y="18.368477" /></text>
  <text
     xml:space="preserve"
     style="font-size:5.33333px;line-height:25px;font-family:'MS Outlook';-inkscape-font-specification:'MS Outlook'"
     x="-4.4979801"
     y="-7.3540854"
     id="text71206"><tspan
       sodipodi:role="line"
       id="tspan71204"
       x="-4.4979801"
       y="-7.3540854" /></text>
  <text
     xml:space="preserve"
     style="font-size:10.6667px;line-height:50px;font-family:'MS Outlook';-inkscape-font-specification:'MS Outlook';fill:#cccccc"
     x="-4.0386486"
     y="15.382823"
     id="text73740"><tspan
       sodipodi:role="line"
       id="tspan73738"
       x="-4.0386486"
       y="15.382823" /></text>
  <text
     xml:space="preserve"
     style="font-size:10.6667px;line-height:50px;font-family:'MS Outlook';-inkscape-font-specification:'MS Outlook'"
     x="3.0809898"
     y="18.521587"
     id="text77928"><tspan
       sodipodi:role="line"
       id="tspan77926"
       x="3.0809898"
       y="18.521587" /></text>
  <g
     aria-label="SSL"
     transform="matrix(0.95284498,0,0,0.87195619,2.8990725,1.0717732)"
     id="text2958"
     style="font-size:10.2992px;line-height:5.34;font-family:'[z] Arista';-inkscape-font-specification:'[z] Arista';letter-spacing:0.19px;fill:#cccccc;stroke-width:0.965561">
    <path
       id="path33215"
       d="M 6.8638608,0.34021891 C 7.0684175,0.12238541 7.3458453,0 7.6351302,0 h 8.7258618 c 1.807235,0 3.272198,1.5601933 3.272198,3.4847783 v 5.8079638 c 0,0.6415244 -0.488321,1.1615929 -1.090733,1.1615929 -0.602412,0 -1.090733,-0.5200685 -1.090733,-1.1615929 V 3.4847783 c 0,-0.6415245 -0.488321,-1.1615928 -1.090732,-1.1615928 H 8.7258616 v 5.8079637 c 0,0.6415245 -0.4883196,1.1615929 -1.0907314,1.1615929 H 2.1814655 V 22.070262 c 0,0.641548 0.488343,1.161593 1.0907328,1.161593 h 1.0907328 c 0.6023899,0 1.0907328,0.520045 1.0907328,1.161593 0,0.641547 -0.4883429,1.161593 -1.0907328,1.161593 H 3.2721983 C 1.4650177,25.555041 0,23.994906 0,22.070262 V 8.1311492 C 0,7.8230717 0.11491961,7.5276206 0.31946471,7.3097755 Z M 3.7239907,6.9695565 h 2.820406 V 3.9659217 Z"
       style="fill:#cccccc"
       sodipodi:nodetypes="csssssssscsscsssssssscccccc" />
  </g>
  <path
     d="m 22.830622,17.978843 c 0.211978,0 0.392552,0.07972 0.54172,0.239138 0.15702,0.151454 0.235532,0.338779 0.235532,0.561976 0,0.231168 -0.07851,0.426464 -0.235532,0.585891 -0.149168,0.151454 -0.329742,0.227181 -0.54172,0.227181 h -2.955906 c -0.227679,0 -0.416105,-0.07573 -0.565273,-0.227181 -0.14917,-0.159427 -0.231606,-0.354723 -0.247308,-0.585891 v -6.01434 c 0,-0.223196 0.07851,-0.410521 0.23553,-0.561977 0.15702,-0.159424 0.349372,-0.239138 0.577051,-0.239138 0.204126,0 0.384699,0.07972 0.541718,0.239138 0.164873,0.151456 0.247308,0.338781 0.247308,0.561977 v 5.213226 z m -7.695336,-4.352327 c -0.188427,0 -0.349371,0.07174 -0.482839,0.215225 -0.125616,0.135513 -0.192349,0.306894 -0.200202,0.51415 0.0078,0.183339 0.07458,0.342764 0.200202,0.478277 0.133468,0.127539 0.294412,0.191311 0.482839,0.191311 h 0.800802 c 0.290488,0 0.569198,0.05978 0.836133,0.179352 0.274785,0.119564 0.518167,0.286968 0.730143,0.502194 0.211978,0.207253 0.380776,0.454364 0.506393,0.741329 0.125614,0.278995 0.188422,0.577919 0.188422,0.89677 0,0.310881 -0.05889,0.605818 -0.176647,0.884814 -0.117771,0.278996 -0.278711,0.522119 -0.482838,0.729372 -0.204125,0.207254 -0.443582,0.374651 -0.718366,0.502192 -0.274786,0.119564 -0.569201,0.183339 -0.88324,0.191312 h -2.096222 c -0.235529,0 -0.427878,-0.07573 -0.577048,-0.227183 -0.14917,-0.159424 -0.223753,-0.354722 -0.223753,-0.585889 0,-0.215224 0.07458,-0.402551 0.223753,-0.561976 0.157019,-0.159426 0.34937,-0.239138 0.577048,-0.239138 h 2.096222 c 0.180573,0 0.341519,-0.06776 0.482837,-0.203269 0.14132,-0.135513 0.211978,-0.298923 0.211978,-0.490235 0,-0.199282 -0.07065,-0.362694 -0.211978,-0.490234 -0.133467,-0.135512 -0.290487,-0.207255 -0.471061,-0.215225 h -0.812578 c -0.298339,-0.008 -0.584902,-0.07174 -0.859689,-0.191311 -0.274785,-0.119564 -0.518166,-0.278995 -0.730143,-0.478278 -0.204126,-0.207253 -0.368997,-0.450377 -0.494614,-0.729372 -0.125616,-0.278996 -0.188425,-0.581904 -0.188425,-0.908728 0,-0.294937 0.05889,-0.581904 0.17665,-0.8609 0.117758,-0.278995 0.27871,-0.526105 0.482836,-0.741329 0.211977,-0.215225 0.455358,-0.386608 0.730144,-0.514149 0.274786,-0.135512 0.569198,-0.203268 0.883241,-0.203268 h 2.096219 c 0.211978,0 0.392551,0.07972 0.54172,0.239139 0.149168,0.151454 0.231605,0.342765 0.247307,0.573932 0,0.231168 -0.07458,0.42248 -0.223753,0.573934 -0.149171,0.151455 -0.337593,0.227181 -0.565274,0.227181 z m -6.1172853,0 c -0.1884234,0 -0.3493699,0.07174 -0.482837,0.215225 -0.1256166,0.135513 -0.19235,0.306894 -0.2002007,0.51415 0.0078,0.183339 0.074582,0.342764 0.2002007,0.478277 0.1334671,0.127539 0.2944136,0.191311 0.482837,0.191311 h 0.8008037 c 0.2904866,0 0.5691976,0.05978 0.8361316,0.179352 0.274786,0.119564 0.518169,0.286968 0.730145,0.502194 0.211978,0.207253 0.380774,0.454364 0.506391,0.741329 0.125616,0.278995 0.188423,0.577919 0.188423,0.89677 0,0.310881 -0.05889,0.605818 -0.176648,0.884814 -0.117758,0.278996 -0.27871,0.522119 -0.482836,0.729372 -0.204126,0.207254 -0.443581,0.374651 -0.718368,0.502192 -0.274785,0.119564 -0.569199,0.183339 -0.8832386,0.191312 H 7.7225841 c -0.2355306,0 -0.4278806,-0.07573 -0.57705,-0.227183 -0.1491694,-0.159424 -0.2237535,-0.354722 -0.2237535,-0.585889 0,-0.215224 0.074582,-0.402551 0.2237535,-0.561976 0.1570199,-0.159426 0.34937,-0.239138 0.57705,-0.239138 h 2.0962203 c 0.1805729,0 0.3415196,-0.06776 0.4828376,-0.203269 0.141318,-0.135513 0.211977,-0.298923 0.211977,-0.490235 0,-0.199282 -0.07066,-0.362694 -0.211977,-0.490234 -0.133468,-0.135512 -0.290488,-0.207255 -0.4710606,-0.215225 H 9.0180007 C 8.7196631,16.631624 8.4331001,16.567929 8.1583154,16.448354 7.8835295,16.32879 7.6401483,16.169359 7.4281705,15.970076 7.2240446,15.762823 7.0591728,15.519699 6.9335564,15.240704 6.807941,14.961708 6.7451328,14.6588 6.7451328,14.331976 c 0,-0.294937 0.058886,-0.581904 0.1766478,-0.8609 0.1177587,-0.278995 0.2787112,-0.526105 0.482837,-0.741329 0.2119777,-0.215225 0.4553589,-0.386608 0.7301449,-0.514149 0.2747846,-0.135512 0.5691982,-0.203268 0.8832382,-0.203268 h 2.0962213 c 0.211977,0 0.39255,0.07972 0.54172,0.239139 0.149169,0.151454 0.231604,0.342765 0.247305,0.573932 0,0.231168 -0.07458,0.42248 -0.223753,0.573934 -0.149169,0.151455 -0.337594,0.227181 -0.565272,0.227181 z"
     style="fill:#ff5555;stroke-width:1.26402"
     id="path608" />
</svg>
