<?xml version="1.0" encoding="UTF-8" standalone="no"?>
<svg
   viewBox="0 0 24.000001 24"
   fill="none"
   version="1.1"
   id="svg509"
   sodipodi:docname="ssl_docs.svg"
   inkscape:version="1.1 (c68e22c387, 2021-05-23)"
   width="24"
   height="24"
   xmlns:inkscape="http://www.inkscape.org/namespaces/inkscape"
   xmlns:sodipodi="http://sodipodi.sourceforge.net/DTD/sodipodi-0.dtd"
   xmlns="http://www.w3.org/2000/svg"
   xmlns:svg="http://www.w3.org/2000/svg">
  <defs
     id="defs513" />
  <sodipodi:namedview
     id="namedview511"
     pagecolor="#000000"
     bordercolor="#666666"
     borderopacity="1.0"
     inkscape:pageshadow="2"
     inkscape:pageopacity="0"
     inkscape:pagecheckerboard="0"
     showgrid="false"
     inkscape:zoom="13.062462"
     inkscape:cx="-7.3110261"
     inkscape:cy="12.899559"
     inkscape:window-width="1920"
     inkscape:window-height="1137"
     inkscape:window-x="1192"
     inkscape:window-y="289"
     inkscape:window-maximized="1"
     inkscape:current-layer="svg509"
     fit-margin-top="0"
     fit-margin-left="0"
     fit-margin-right="0"
     fit-margin-bottom="0" />
  <g
     id="SVGRepo_bgCarrier"
     stroke-width="0"
     transform="translate(-5.1104222,-0.00478179)" />
  <g
     id="SVGRepo_tracerCarrier"
     stroke-linecap="round"
     stroke-linejoin="round"
     transform="translate(-5.1104222,-0.00478179)" />
  <text
     xml:space="preserve"
     style="font-style:normal;font-weight:normal;font-size:40px;line-height:1.25;font-family:sans-serif;fill:#000000;fill-opacity:1;stroke:none"
     x="-0.78122282"
     y="11.224079"
     id="text2419"><tspan
       sodipodi:role="line"
       id="tspan2417"
       x="-0.78122282"
       y="11.224079" /></text>
  <text
     xml:space="preserve"
     style="font-size:8px;line-height:1.25;font-family:sans-serif"
     x="-3.2730963"
     y="22.34935"
     id="text13427"><tspan
       sodipodi:role="line"
       id="tspan13425"
       x="-3.2730963"
       y="22.34935" /></text>
  <text
     xml:space="preserve"
     style="font-size:18.6667px;line-height:1.25;font-family:'MS Outlook';-inkscape-font-specification:'MS Outlook'"
     x="-3.3496516"
     y="2.9043176"
     id="text22011"><tspan
       sodipodi:role="line"
       id="tspan22009"
       x="-3.3496516"
       y="2.9043176" /></text>
  <text
     xml:space="preserve"
     style="font-size:5.33333px;line-height:1.25;font-family:'MS Outlook';-inkscape-font-specification:'MS Outlook'"
     x="-2.9668753"
     y="14.923491"
     id="text25681"><tspan
       sodipodi:role="line"
       id="tspan25679"
       x="-2.9668753"
       y="14.923491" /></text>
  <text
     xml:space="preserve"
     style="font-size:5.33333px;line-height:25px;font-family:'MS Outlook';-inkscape-font-specification:'MS Outlook';fill:#c7c7c7;fill-opacity:1;stroke:none"
     x="-3.1965411"
     y="4.5119777"
     id="text38204"><tspan
       sodipodi:role="line"
       id="tspan38202"
       x="-3.1965411"
       y="4.5119777" /></text>
  <text
     xml:space="preserve"
     style="font-size:8px;line-height:37.5px;font-family:'MS Outlook';-inkscape-font-specification:'MS Outlook';fill:#cccccc"
     x="-3.2730963"
     y="14.693826"
     id="text52190"><tspan
       sodipodi:role="line"
       id="tspan52188"
       x="-3.2730963"
       y="14.693826" /></text>
  <text
     xml:space="preserve"
     style="font-size:10.6667px;line-height:50px;font-family:'MS Outlook';-inkscape-font-specification:'MS Outlook';fill:#cccccc"
     x="0.7843318"
     y="18.368477"
     id="text64866"><tspan
       sodipodi:role="line"
       id="tspan64864"
       x="0.7843318"
       y="18.368477" /></text>
  <text
     xml:space="preserve"
     style="font-size:5.33333px;line-height:25px;font-family:'MS Outlook';-inkscape-font-specification:'MS Outlook'"
     x="-4.4979801"
     y="-7.3540854"
     id="text71206"><tspan
       sodipodi:role="line"
       id="tspan71204"
       x="-4.4979801"
       y="-7.3540854" /></text>
  <text
     xml:space="preserve"
     style="font-size:10.6667px;line-height:50px;font-family:'MS Outlook';-inkscape-font-specification:'MS Outlook';fill:#cccccc"
     x="-4.0386486"
     y="15.382823"
     id="text73740"><tspan
       sodipodi:role="line"
       id="tspan73738"
       x="-4.0386486"
       y="15.382823" /></text>
  <text
     xml:space="preserve"
     style="font-size:10.6667px;line-height:50px;font-family:'MS Outlook';-inkscape-font-specification:'MS Outlook'"
     x="3.0809898"
     y="18.521587"
     id="text77928"><tspan
       sodipodi:role="line"
       id="tspan77926"
       x="3.0809898"
       y="18.521587" /></text>
  <g
     aria-label="SSL"
     transform="matrix(0.95284498,0,0,0.82442195,5.1957295,2.8265727)"
     id="text2958"
     style="font-size:10.2992px;line-height:5.34;font-family:'[z] Arista';-inkscape-font-specification:'[z] Arista';letter-spacing:0.19px;fill:#b3b3b3;stroke-width:0.965561">
    <path
       id="path33215"
       d="M 6.9442047,0.42801604 C 7.1487614,0.21018254 7.4261892,0.08779713 7.7154741,0.08779713 h 8.7258619 c 1.807235,0 3.272198,1.56019327 3.272198,3.48477827 v 5.8079638 c 0,0.6415248 -0.488321,1.1615928 -1.090733,1.1615928 -0.602412,0 -1.090733,-0.520068 -1.090733,-1.1615928 V 3.5725754 c 0,-0.6415245 -0.488321,-1.1615928 -1.090732,-1.1615928 H 8.8062055 v 5.8079637 c 0,0.6415245 -0.4883196,1.1615929 -1.0907314,1.1615929 H 2.2618094 V 22.158059 c 0,0.641548 0.488343,1.161593 1.0907328,1.161593 H 4.443275 c 0.6023899,0 1.0907328,0.520045 1.0907328,1.161593 0,0.641547 -0.4883429,1.161593 -1.0907328,1.161593 H 3.3525422 c -1.8071806,0 -3.27219834,-1.560135 -3.27219834,-3.484779 V 8.2189463 c 0,-0.3080775 0.11491961,-0.6035286 0.31946471,-0.8213737 z M 3.8043346,7.0573536 h 2.820406 V 4.0537188 Z"
       style="fill:#b3b3b3"
       sodipodi:nodetypes="csssssssscsscsssssssscccccc" />
  </g>
  <g
     aria-label="SSL"
     transform="matrix(0.95284498,0,0,0.87195619,0.12965619,-0.04484482)"
     id="text2958-0"
     style="font-size:10.2992px;line-height:5.34;font-family:'[z] Arista';-inkscape-font-specification:'[z] Arista';letter-spacing:0.19px;fill:#b3b3b3;stroke-width:0.965561">
    <path
       id="path33215-3"
       d="M 6.8638608,0.34021891 C 7.0684175,0.12238541 7.3458453,0 7.6351302,0 h 8.7258618 c 1.807235,0 3.272198,1.5601933 3.272198,3.4847783 h -2.181466 c 0,-0.6415245 -0.488321,-1.1615928 -1.090732,-1.1615928 H 8.7258616 v 5.8079637 c 0,0.6415245 -0.4883196,1.1615929 -1.0907314,1.1615929 H 2.1814655 V 22.070262 c 0,0.641548 0.488343,1.161593 1.0907328,1.161593 h 3.1897101 l 0,2.323186 H 3.2721983 C 1.4650177,25.555041 0,23.994906 0,22.070262 V 8.1311492 C 0,7.8230717 0.11491961,7.5276206 0.31946471,7.3097755 Z M 3.7239907,6.9695565 h 2.820406 V 3.9659217 Z"
       style="fill:#b3b3b3"
       sodipodi:nodetypes="cssccscsscssccssscccccc" />
  </g>
  <g
     aria-label="SSL"
     transform="matrix(0.94703299,0,0,1.0367551,1.3071552,-0.38395181)"
     id="text2954"
     style="font-size:11.6737px;line-height:54.7201px;font-family:'[z] Arista';-inkscape-font-specification:'[z] Arista';fill:#ff5555;stroke-width:1.0944">
    <path
       d="m 10.030562,13.667669 c -0.1867789,0 -0.3463195,0.07004 -0.4786214,0.210127 -0.1245195,0.132302 -0.1906704,0.299625 -0.1984529,0.501969 0.00778,0.178997 0.073934,0.334646 0.1984529,0.466948 0.1323019,0.124519 0.2918425,0.186779 0.4786214,0.186779 h 0.793812 c 0.287951,0 0.564229,0.05837 0.828833,0.175106 0.272386,0.116737 0.513643,0.280168 0.72377,0.490295 0.210126,0.202344 0.377449,0.443601 0.501969,0.72377 0.124519,0.272386 0.186779,0.564228 0.186779,0.875527 0,0.303516 -0.05837,0.591467 -0.175106,0.863854 -0.116737,0.272386 -0.276277,0.509751 -0.478621,0.712096 -0.202345,0.202344 -0.43971,0.365776 -0.712096,0.490295 -0.272387,0.116737 -0.56423,0.178997 -0.875528,0.186779 H 8.7464553 c -0.233474,0 -0.4241444,-0.07393 -0.5720113,-0.2218 -0.1478669,-0.155649 -0.2218003,-0.34632 -0.2218003,-0.572011 0,-0.210127 0.073933,-0.393015 0.2218003,-0.548664 0.1556493,-0.155649 0.3463198,-0.233474 0.5720113,-0.233474 h 2.0779187 c 0.178996,0 0.338537,-0.06615 0.478622,-0.198453 0.140084,-0.132302 0.210127,-0.291843 0.210127,-0.478622 0,-0.194561 -0.07004,-0.354102 -0.210127,-0.478622 -0.132302,-0.132302 -0.287952,-0.202344 -0.466948,-0.210126 H 10.030562 C 9.7348286,16.601659 9.4507685,16.5394 9.1783822,16.422663 8.9059959,16.305926 8.6647394,16.150276 8.4546128,15.955715 8.2522687,15.75337 8.0888369,15.516005 7.9643174,15.243619 7.8397979,14.971232 7.7775382,14.675499 7.7775382,14.356418 c 0,-0.287951 0.058368,-0.56812 0.1751055,-0.840507 0.116737,-0.272386 0.2762776,-0.513642 0.4786217,-0.723769 0.2101266,-0.210127 0.4513831,-0.37745 0.7237694,-0.501969 0.2723863,-0.132302 0.5642288,-0.198453 0.8755272,-0.198453 h 2.077919 c 0.210126,0 0.389123,0.07782 0.536991,0.233474 0.147866,0.147867 0.229582,0.334646 0.245147,0.560337 0,0.225692 -0.07393,0.412471 -0.2218,0.560338 -0.147867,0.147867 -0.334646,0.2218 -0.560338,0.2218 z"
       id="path19265"
       style="fill:#ff5555"
       sodipodi:nodetypes="scccsscccsssccscscsssscccscsssccssccsss" />
    <path
       d="m 15.720761,13.667669 q -0.280169,0 -0.478622,0.210127 -0.186779,0.198453 -0.198452,0.501969 0.01167,0.268495 0.198452,0.466948 0.198453,0.186779 0.478622,0.186779 h 0.793812 q 0.431927,0 0.828833,0.175106 0.408579,0.175105 0.723769,0.490295 0.31519,0.303516 0.501969,0.72377 0.186779,0.408579 0.186779,0.875527 0,0.455274 -0.175105,0.863854 -0.175106,0.408579 -0.478622,0.712096 -0.303516,0.303516 -0.712096,0.490295 -0.408579,0.175106 -0.875527,0.186779 h -2.077919 q -0.350211,0 -0.572011,-0.2218 -0.2218,-0.233474 -0.2218,-0.572011 0,-0.31519 0.2218,-0.548664 0.233474,-0.233474 0.572011,-0.233474 h 2.077919 q 0.268495,0 0.478621,-0.198453 0.210127,-0.198453 0.210127,-0.478622 0,-0.291842 -0.210127,-0.478622 -0.198452,-0.198453 -0.466948,-0.210126 h -0.805485 q -0.4436,-0.01167 -0.85218,-0.186779 -0.408579,-0.175106 -0.723769,-0.466948 -0.303517,-0.303517 -0.490296,-0.712096 -0.186779,-0.40858 -0.186779,-0.887201 0,-0.431927 0.175106,-0.840507 0.175105,-0.408579 0.478621,-0.723769 0.31519,-0.31519 0.72377,-0.501969 0.408579,-0.198453 0.875527,-0.198453 h 2.077919 q 0.31519,0 0.53699,0.233474 0.2218,0.2218 0.245148,0.560337 0,0.338538 -0.221801,0.560338 -0.2218,0.2218 -0.560337,0.2218 z"
       id="path19267"
       style="fill:#ff5555" />
    <path
       d="m 23.133554,17.916896 q 0.31519,0 0.536991,0.233474 0.233474,0.2218 0.233474,0.548664 0,0.338537 -0.233474,0.572011 -0.221801,0.221801 -0.536991,0.221801 h -2.930098 q -0.338538,0 -0.560338,-0.221801 -0.2218,-0.233474 -0.245148,-0.572011 v -5.871871 q 0,-0.326864 0.233474,-0.548664 0.233474,-0.233474 0.572012,-0.233474 0.303516,0 0.53699,0.233474 0.245148,0.2218 0.245148,0.548664 v 5.089733 z"
       id="path19269"
       style="fill:#ff5555" />
  </g>
</svg>
