<?xml version="1.0" encoding="UTF-8" standalone="no"?>
<svg
   viewBox="0 0 24.000001 24"
   fill="none"
   version="1.1"
   id="svg509"
   sodipodi:docname="xfd.svg"
   inkscape:version="1.1 (c68e22c387, 2021-05-23)"
   width="24"
   height="24"
   xmlns:inkscape="http://www.inkscape.org/namespaces/inkscape"
   xmlns:sodipodi="http://sodipodi.sourceforge.net/DTD/sodipodi-0.dtd"
   xmlns="http://www.w3.org/2000/svg"
   xmlns:svg="http://www.w3.org/2000/svg">
  <defs
     id="defs513" />
  <sodipodi:namedview
     id="namedview511"
     pagecolor="#000000"
     bordercolor="#666666"
     borderopacity="1.0"
     inkscape:pageshadow="2"
     inkscape:pageopacity="0"
     inkscape:pagecheckerboard="0"
     showgrid="false"
     inkscape:zoom="13.062462"
     inkscape:cx="-6.1626974"
     inkscape:cy="8.1531338"
     inkscape:window-width="1920"
     inkscape:window-height="1137"
     inkscape:window-x="1192"
     inkscape:window-y="289"
     inkscape:window-maximized="1"
     inkscape:current-layer="svg509"
     fit-margin-top="0"
     fit-margin-left="0"
     fit-margin-right="0"
     fit-margin-bottom="0" />
  <g
     id="SVGRepo_bgCarrier"
     stroke-width="0"
     transform="translate(-5.1104222,-0.00478179)" />
  <g
     id="SVGRepo_tracerCarrier"
     stroke-linecap="round"
     stroke-linejoin="round"
     transform="translate(-5.1104222,-0.00478179)" />
  <text
     xml:space="preserve"
     style="font-style:normal;font-weight:normal;font-size:40px;line-height:1.25;font-family:sans-serif;fill:#000000;fill-opacity:1;stroke:none"
     x="-0.78122282"
     y="11.224079"
     id="text2419"><tspan
       sodipodi:role="line"
       id="tspan2417"
       x="-0.78122282"
       y="11.224079" /></text>
  <text
     xml:space="preserve"
     style="font-size:8px;line-height:1.25;font-family:sans-serif"
     x="-3.2730963"
     y="22.34935"
     id="text13427"><tspan
       sodipodi:role="line"
       id="tspan13425"
       x="-3.2730963"
       y="22.34935" /></text>
  <text
     xml:space="preserve"
     style="font-size:18.6667px;line-height:1.25;font-family:'MS Outlook';-inkscape-font-specification:'MS Outlook'"
     x="-3.3496516"
     y="2.9043176"
     id="text22011"><tspan
       sodipodi:role="line"
       id="tspan22009"
       x="-3.3496516"
       y="2.9043176" /></text>
  <text
     xml:space="preserve"
     style="font-size:5.33333px;line-height:1.25;font-family:'MS Outlook';-inkscape-font-specification:'MS Outlook'"
     x="-2.9668753"
     y="14.923491"
     id="text25681"><tspan
       sodipodi:role="line"
       id="tspan25679"
       x="-2.9668753"
       y="14.923491" /></text>
  <text
     xml:space="preserve"
     style="font-size:5.33333px;line-height:25px;font-family:'MS Outlook';-inkscape-font-specification:'MS Outlook';fill:#c7c7c7;fill-opacity:1;stroke:none"
     x="-3.1965411"
     y="4.5119777"
     id="text38204"><tspan
       sodipodi:role="line"
       id="tspan38202"
       x="-3.1965411"
       y="4.5119777" /></text>
  <text
     xml:space="preserve"
     style="font-size:8px;line-height:37.5px;font-family:'MS Outlook';-inkscape-font-specification:'MS Outlook';fill:#cccccc"
     x="-3.2730963"
     y="14.693826"
     id="text52190"><tspan
       sodipodi:role="line"
       id="tspan52188"
       x="-3.2730963"
       y="14.693826" /></text>
  <text
     xml:space="preserve"
     style="font-size:10.6667px;line-height:50px;font-family:'MS Outlook';-inkscape-font-specification:'MS Outlook';fill:#cccccc"
     x="0.7843318"
     y="18.368477"
     id="text64866"><tspan
       sodipodi:role="line"
       id="tspan64864"
       x="0.7843318"
       y="18.368477" /></text>
  <text
     xml:space="preserve"
     style="font-size:5.33333px;line-height:25px;font-family:'MS Outlook';-inkscape-font-specification:'MS Outlook'"
     x="-4.4979801"
     y="-7.3540854"
     id="text71206"><tspan
       sodipodi:role="line"
       id="tspan71204"
       x="-4.4979801"
       y="-7.3540854" /></text>
  <text
     xml:space="preserve"
     style="font-size:10.6667px;line-height:50px;font-family:'MS Outlook';-inkscape-font-specification:'MS Outlook';fill:#cccccc"
     x="-4.0386486"
     y="15.382823"
     id="text73740"><tspan
       sodipodi:role="line"
       id="tspan73738"
       x="-4.0386486"
       y="15.382823" /></text>
  <text
     xml:space="preserve"
     style="font-size:10.6667px;line-height:50px;font-family:'MS Outlook';-inkscape-font-specification:'MS Outlook'"
     x="3.0809898"
     y="18.521587"
     id="text77928"><tspan
       sodipodi:role="line"
       id="tspan77926"
       x="3.0809898"
       y="18.521587" /></text>
  <g
     aria-label="SSL"
     transform="matrix(0.95284498,0,0,0.87195619,2.8990725,1.0717732)"
     id="text2958"
     style="font-size:10.2992px;line-height:5.34;font-family:'[z] Arista';-inkscape-font-specification:'[z] Arista';letter-spacing:0.19px;fill:#cccccc;stroke-width:0.965561">
    <path
       id="path33215"
       d="M 6.8638608,0.34021891 C 7.0684175,0.12238541 7.3458453,0 7.6351302,0 h 8.7258618 c 1.807235,0 3.272198,1.5601933 3.272198,3.4847783 v 5.8079638 c 0,0.6415244 -0.488321,1.1615929 -1.090733,1.1615929 -0.602412,0 -1.090733,-0.5200685 -1.090733,-1.1615929 V 3.4847783 c 0,-0.6415245 -0.488321,-1.1615928 -1.090732,-1.1615928 H 8.7258616 v 5.8079637 c 0,0.6415245 -0.4883196,1.1615929 -1.0907314,1.1615929 H 2.1814655 V 22.070262 c 0,0.641548 0.488343,1.161593 1.0907328,1.161593 h 1.0907328 c 0.6023899,0 1.0907328,0.520045 1.0907328,1.161593 0,0.641547 -0.4883429,1.161593 -1.0907328,1.161593 H 3.2721983 C 1.4650177,25.555041 0,23.994906 0,22.070262 V 8.1311492 C 0,7.8230717 0.11491961,7.5276206 0.31946471,7.3097755 Z M 3.7239907,6.9695565 h 2.820406 V 3.9659217 Z"
       style="fill:#cccccc"
       sodipodi:nodetypes="csssssssscsscsssssssscccccc" />
  </g>
  <g
     aria-label="XFD"
     transform="matrix(1.0301006,0,0,1.1299839,0.08593455,-3.2973682)"
     id="text11885"
     style="font-size:11.6066px;line-height:54.4055px;font-family:'[z] Arista';-inkscape-font-specification:'[z] Arista';letter-spacing:0.359076px;word-spacing:0px;fill:#cccccc;stroke-width:1.08811">
    <path
       d="m 11.395056,19.423926 q 0.185706,0.266952 0.127673,0.591937 -0.05803,0.324985 -0.324985,0.51069 -0.266952,0.197313 -0.591937,0.13928 -0.313378,-0.06964 -0.51069,-0.336592 l -1.3695787,-1.984728 -1.392792,1.984728 q -0.1857056,0.266952 -0.5106904,0.336592 -0.3133782,0.05803 -0.58033,-0.13928 -0.1392792,-0.09285 -0.2205254,-0.220525 -0.081246,-0.139279 -0.116066,-0.290165 -0.023213,-0.150886 0.011607,-0.301772 0.03482,-0.150885 0.1276726,-0.290165 L 7.7505839,16.963327 6.0444137,14.491121 q -0.1973122,-0.266951 -0.1392792,-0.58033 0.06964,-0.324984 0.3365914,-0.522297 0.2669518,-0.185705 0.58033,-0.127672 0.3249848,0.05803 0.5106904,0.324985 l 1.392792,1.984728 1.3695787,-1.984728 q 0.197312,-0.266952 0.51069,-0.324985 0.324985,-0.05803 0.591937,0.127672 0.266952,0.197313 0.324985,0.522297 0.06964,0.313379 -0.127673,0.58033 l -1.7061699,2.472206 z"
       id="path17346" />
    <path
       d="m 14.203122,14.816106 v 1.578498 h 1.520465 q 0.336591,0 0.557117,0.232132 0.220525,0.232132 0.220525,0.557117 0,0.324984 -0.220525,0.557116 -0.220526,0.220526 -0.557117,0.220526 h -1.520465 v 1.915089 q 0,0.336591 -0.232132,0.568723 -0.220525,0.220526 -0.557117,0.220526 -0.336591,0 -0.568723,-0.220526 -0.220525,-0.232132 -0.220525,-0.568723 v -5.83812 q 0,-0.301772 0.220525,-0.54551 0.232132,-0.243739 0.568723,-0.243739 h 3.087356 q 0.324985,0 0.54551,0.232132 0.232132,0.232132 0.232132,0.557117 0,0.336591 -0.232132,0.557117 -0.220525,0.220525 -0.54551,0.220525 z"
       id="path17348" />
    <path
       d="m 20.583771,13.249215 c 0.34046,0 0.669313,0.06964 0.986561,0.208919 0.324984,0.131541 0.607412,0.317247 0.847282,0.557117 0.247607,0.239869 0.444919,0.518428 0.591936,0.835675 0.147017,0.317247 0.220526,0.661576 0.220526,1.032987 v 2.147221 c 0,0.348198 -0.07351,0.680921 -0.220526,0.998168 -0.13928,0.317247 -0.328854,0.599675 -0.568723,0.847282 -0.23987,0.239869 -0.522298,0.433313 -0.847282,0.58033 -0.317248,0.139279 -0.653839,0.208919 -1.009774,0.208919 h -1.578498 c -0.208919,0 -0.394624,-0.07351 -0.557116,-0.220526 -0.154755,-0.154755 -0.232132,-0.344329 -0.232132,-0.568723 v -5.83812 c 0,-0.201181 0.07351,-0.383018 0.220525,-0.54551 0.154754,-0.162493 0.344329,-0.243739 0.568723,-0.243739 z m -0.800855,1.578498 v 4.259622 h 0.800855 c 0.147016,0 0.286295,-0.02708 0.417837,-0.08125 0.131542,-0.05417 0.243739,-0.127675 0.336592,-0.220526 0.10059,-0.10059 0.177968,-0.212787 0.232132,-0.336591 0.05417,-0.131541 0.08125,-0.270821 0.08125,-0.417838 v -2.147221 c 0,-0.147017 -0.02708,-0.282427 -0.08125,-0.406231 -0.05417,-0.131541 -0.131544,-0.243738 -0.232132,-0.336591 -0.09285,-0.100591 -0.20505,-0.177968 -0.336592,-0.232132 -0.131542,-0.05417 -0.270821,-0.08125 -0.417837,-0.08125 z"
       id="path17350"
       sodipodi:nodetypes="sccssscccsscsscssccssscssccscc" />
  </g>
</svg>
