<?xml version="1.0" encoding="UTF-8" standalone="no"?>
<svg
   viewBox="0 0 24.000001 24"
   fill="none"
   version="1.1"
   id="svg509"
   sodipodi:docname="xml.svg"
   inkscape:version="1.1 (c68e22c387, 2021-05-23)"
   width="24"
   height="24"
   xmlns:inkscape="http://www.inkscape.org/namespaces/inkscape"
   xmlns:sodipodi="http://sodipodi.sourceforge.net/DTD/sodipodi-0.dtd"
   xmlns="http://www.w3.org/2000/svg"
   xmlns:svg="http://www.w3.org/2000/svg">
  <defs
     id="defs513" />
  <sodipodi:namedview
     id="namedview511"
     pagecolor="#000000"
     bordercolor="#666666"
     borderopacity="1.0"
     inkscape:pageshadow="2"
     inkscape:pageopacity="0"
     inkscape:pagecheckerboard="0"
     showgrid="false"
     inkscape:zoom="13.062462"
     inkscape:cx="-7.3110261"
     inkscape:cy="8.1531338"
     inkscape:window-width="1920"
     inkscape:window-height="1137"
     inkscape:window-x="1192"
     inkscape:window-y="289"
     inkscape:window-maximized="1"
     inkscape:current-layer="svg509"
     fit-margin-top="0"
     fit-margin-left="0"
     fit-margin-right="0"
     fit-margin-bottom="0" />
  <g
     id="SVGRepo_bgCarrier"
     stroke-width="0"
     transform="translate(-5.1104222,-0.00478179)" />
  <g
     id="SVGRepo_tracerCarrier"
     stroke-linecap="round"
     stroke-linejoin="round"
     transform="translate(-5.1104222,-0.00478179)" />
  <text
     xml:space="preserve"
     style="font-style:normal;font-weight:normal;font-size:40px;line-height:1.25;font-family:sans-serif;fill:#000000;fill-opacity:1;stroke:none"
     x="-0.78122282"
     y="11.224079"
     id="text2419"><tspan
       sodipodi:role="line"
       id="tspan2417"
       x="-0.78122282"
       y="11.224079" /></text>
  <text
     xml:space="preserve"
     style="font-size:8px;line-height:1.25;font-family:sans-serif"
     x="-3.2730963"
     y="22.34935"
     id="text13427"><tspan
       sodipodi:role="line"
       id="tspan13425"
       x="-3.2730963"
       y="22.34935" /></text>
  <text
     xml:space="preserve"
     style="font-size:18.6667px;line-height:1.25;font-family:'MS Outlook';-inkscape-font-specification:'MS Outlook'"
     x="-3.3496516"
     y="2.9043176"
     id="text22011"><tspan
       sodipodi:role="line"
       id="tspan22009"
       x="-3.3496516"
       y="2.9043176" /></text>
  <text
     xml:space="preserve"
     style="font-size:5.33333px;line-height:1.25;font-family:'MS Outlook';-inkscape-font-specification:'MS Outlook'"
     x="-2.9668753"
     y="14.923491"
     id="text25681"><tspan
       sodipodi:role="line"
       id="tspan25679"
       x="-2.9668753"
       y="14.923491" /></text>
  <text
     xml:space="preserve"
     style="font-size:5.33333px;line-height:25px;font-family:'MS Outlook';-inkscape-font-specification:'MS Outlook';fill:#c7c7c7;fill-opacity:1;stroke:none"
     x="-3.1965411"
     y="4.5119777"
     id="text38204"><tspan
       sodipodi:role="line"
       id="tspan38202"
       x="-3.1965411"
       y="4.5119777" /></text>
  <text
     xml:space="preserve"
     style="font-size:8px;line-height:37.5px;font-family:'MS Outlook';-inkscape-font-specification:'MS Outlook';fill:#cccccc"
     x="-3.2730963"
     y="14.693826"
     id="text52190"><tspan
       sodipodi:role="line"
       id="tspan52188"
       x="-3.2730963"
       y="14.693826" /></text>
  <text
     xml:space="preserve"
     style="font-size:10.6667px;line-height:50px;font-family:'MS Outlook';-inkscape-font-specification:'MS Outlook';fill:#cccccc"
     x="0.7843318"
     y="18.368477"
     id="text64866"><tspan
       sodipodi:role="line"
       id="tspan64864"
       x="0.7843318"
       y="18.368477" /></text>
  <text
     xml:space="preserve"
     style="font-size:5.33333px;line-height:25px;font-family:'MS Outlook';-inkscape-font-specification:'MS Outlook'"
     x="-4.4979801"
     y="-7.3540854"
     id="text71206"><tspan
       sodipodi:role="line"
       id="tspan71204"
       x="-4.4979801"
       y="-7.3540854" /></text>
  <text
     xml:space="preserve"
     style="font-size:10.6667px;line-height:50px;font-family:'MS Outlook';-inkscape-font-specification:'MS Outlook';fill:#cccccc"
     x="-4.0386486"
     y="15.382823"
     id="text73740"><tspan
       sodipodi:role="line"
       id="tspan73738"
       x="-4.0386486"
       y="15.382823" /></text>
  <text
     xml:space="preserve"
     style="font-size:10.6667px;line-height:50px;font-family:'MS Outlook';-inkscape-font-specification:'MS Outlook'"
     x="3.0809898"
     y="18.521587"
     id="text77928"><tspan
       sodipodi:role="line"
       id="tspan77926"
       x="3.0809898"
       y="18.521587" /></text>
  <g
     aria-label="SSL"
     transform="matrix(0.95284498,0,0,0.87195619,2.8990725,1.0717732)"
     id="text2958"
     style="font-size:10.2992px;line-height:5.34;font-family:'[z] Arista';-inkscape-font-specification:'[z] Arista';letter-spacing:0.19px;fill:#cccccc;stroke-width:0.965561">
    <path
       id="path33215"
       d="M 6.8638608,0.34021891 C 7.0684175,0.12238541 7.3458453,0 7.6351302,0 h 8.7258618 c 1.807235,0 3.272198,1.5601933 3.272198,3.4847783 v 5.8079638 c 0,0.6415244 -0.488321,1.1615929 -1.090733,1.1615929 -0.602412,0 -1.090733,-0.5200685 -1.090733,-1.1615929 V 3.4847783 c 0,-0.6415245 -0.488321,-1.1615928 -1.090732,-1.1615928 H 8.7258616 v 5.8079637 c 0,0.6415245 -0.4883196,1.1615929 -1.0907314,1.1615929 H 2.1814655 V 22.070262 c 0,0.641548 0.488343,1.161593 1.0907328,1.161593 h 1.0907328 c 0.6023899,0 1.0907328,0.520045 1.0907328,1.161593 0,0.641547 -0.4883429,1.161593 -1.0907328,1.161593 H 3.2721983 C 1.4650177,25.555041 0,23.994906 0,22.070262 V 8.1311492 C 0,7.8230717 0.11491961,7.5276206 0.31946471,7.3097755 Z M 3.7239907,6.9695565 h 2.820406 V 3.9659217 Z"
       style="fill:#cccccc"
       sodipodi:nodetypes="csssssssscsscsssssssscccccc" />
  </g>
  <g
     aria-label="XML"
     transform="matrix(1.0585341,0,0,1.2588405,-0.68798937,-4.0313973)"
     id="text6377"
     style="font-size:10.2212px;line-height:47.9115px;font-family:'[z] Arista';-inkscape-font-specification:'[z] Arista';fill:#cccccc;stroke-width:0.95823">
    <path
       d="m 10.942055,17.979286 q 0.163539,0.235087 0.112433,0.521281 -0.05111,0.286194 -0.286193,0.449733 -0.235088,0.17376 -0.521281,0.122654 -0.2759727,-0.06133 -0.4497331,-0.296415 L 8.5911793,17.028714 7.3646353,18.776539 Q 7.2010961,19.011627 6.9149025,19.072954 6.6389301,19.12406 6.4038425,18.9503 6.2811881,18.86853 6.2096397,18.756097 q -0.071548,-0.122654 -0.102212,-0.25553 -0.020442,-0.132876 0.010221,-0.265751 0.030664,-0.132876 0.1124332,-0.25553 L 7.7325985,15.812391 6.2300821,13.635276 q -0.1737604,-0.235088 -0.1226544,-0.51106 0.061327,-0.286194 0.2964148,-0.459954 0.2350876,-0.163539 0.51106,-0.112433 0.2861936,0.05111 0.4497328,0.286193 l 1.226544,1.747825 1.2061016,-1.747825 q 0.1737604,-0.235087 0.4497331,-0.286193 0.286193,-0.05111 0.521281,0.112433 0.235087,0.17376 0.286193,0.459954 0.06133,0.275972 -0.112433,0.51106 l -1.5025161,2.177115 z"
       id="path8501" />
    <path
       d="m 16.353803,12.541607 q 0.398945,0 0.749239,0.16354 0.350292,0.163539 0.613012,0.449732 0.26272,0.286194 0.418406,0.664378 0.165416,0.367964 0.184877,0.797254 v 3.761402 q 0,0.296414 -0.194607,0.500838 -0.194607,0.194203 -0.457328,0.194203 -0.282181,0 -0.476788,-0.194203 -0.184876,-0.204424 -0.184876,-0.500838 v -3.679632 q 0,-0.296415 -0.194607,-0.490618 -0.184878,-0.204424 -0.457328,-0.204424 -0.27245,0 -0.467057,0.204424 -0.194607,0.194203 -0.194607,0.490618 v 3.679632 q 0,0.296414 -0.194608,0.500838 -0.184877,0.194203 -0.457327,0.194203 -0.27245,0 -0.467057,-0.194203 -0.184877,-0.204424 -0.184877,-0.500838 v -3.679632 q 0,-0.296415 -0.194608,-0.490618 -0.184877,-0.204424 -0.467058,-0.204424 -0.272449,0 -0.467057,0.204424 -0.184877,0.194203 -0.184877,0.490618 v 3.679632 q 0,0.296414 -0.194607,0.500838 -0.184877,0.194203 -0.467058,0.194203 -0.27245,0 -0.467057,-0.194203 -0.184877,-0.204424 -0.184877,-0.500838 v -3.761402 q 0,-0.398627 0.145955,-0.776811 0.155686,-0.378185 0.418406,-0.664378 0.27245,-0.286194 0.632473,-0.459954 0.360024,-0.173761 0.768699,-0.173761 0.369755,0 0.690856,0.143097 0.330833,0.143097 0.622744,0.388406 0.28218,-0.235088 0.603283,-0.378185 0.330831,-0.153318 0.710316,-0.153318 z"
       id="path8503"
       style="stroke-width:0.934939" />
    <path
       d="m 22.60707,17.641986 q 0.275973,0 0.470176,0.204424 0.204424,0.194203 0.204424,0.480397 0,0.296414 -0.204424,0.500838 -0.194203,0.194203 -0.470176,0.194203 h -2.565521 q -0.296415,0 -0.490617,-0.194203 -0.194203,-0.204424 -0.214646,-0.500838 v -5.141264 q 0,-0.286194 0.204424,-0.480396 0.204424,-0.204424 0.500839,-0.204424 0.265751,0 0.470175,0.204424 0.214646,0.194202 0.214646,0.480396 v 4.456443 z"
       id="path8505" />
  </g>
</svg>
