<svg version="1.1" id="_x32_" xmlns="http://www.w3.org/2000/svg" xmlns:xlink="http://www.w3.org/1999/xlink" viewBox="0 0 512 512" xml:space="preserve" fill="#c7c7c7" stroke="#c7c7c7" stroke-width="0.00512"><g id="SVGRepo_bgCarrier" stroke-width="0"></g><g id="SVGRepo_tracerCarrier" stroke-linecap="round" stroke-linejoin="round"></g><g id="SVGRepo_iconCarrier"> <style type="text/css"> .st0{fill:#3d3d3d;} </style> <g> <path class="st0" d="M464,0H48C21.492,0,0,21.492,0,48v416c0,26.508,21.492,48,48,48h416c26.508,0,48-21.492,48-48V48 C512,21.492,490.508,0,464,0z M444.664,35c10.492,0,19,8.508,19,19s-8.508,19-19,19s-19-8.508-19-19S434.172,35,444.664,35z M374.164,35c10.492,0,19,8.508,19,19s-8.508,19-19,19s-19-8.508-19-19S363.672,35,374.164,35z M303.664,35 c10.492,0,19,8.508,19,19s-8.508,19-19,19s-19-8.508-19-19S293.172,35,303.664,35z M472,464c0,4.406-3.586,8-8,8H48 c-4.414,0-8-3.594-8-8V104h432V464z"></path> <rect x="112" y="192" class="st0" width="288" height="32"></rect> <rect x="112" y="272" class="st0" width="288" height="32"></rect> <rect x="112" y="352" class="st0" width="152" height="32"></rect> </g> </g></svg>