<svg viewBox="0 0 24 24" fill="none" xmlns="http://www.w3.org/2000/svg"><g id="SVGRepo_bgCarrier" stroke-width="0"></g><g id="SVGRepo_tracerCarrier" stroke-linecap="round" stroke-linejoin="round"></g><g id="SVGRepo_iconCarrier"> <path fill-rule="evenodd" clip-rule="evenodd" d="M9.29289 1.29289C9.48043 1.10536 9.73478 1 10 1H18C19.6569 1 21 2.34315 21 4V9C21 9.55228 20.5523 10 20 10C19.4477 10 19 9.55228 19 9V4C19 3.44772 18.5523 3 18 3H11V8C11 8.55228 10.5523 9 10 9H5V20C5 20.5523 5.44772 21 6 21H7C7.55228 21 8 21.4477 8 22C8 22.5523 7.55228 23 7 23H6C4.34315 23 3 21.6569 3 20V8C3 7.73478 3.10536 7.48043 3.29289 7.29289L9.29289 1.29289ZM6.41421 7H9V4.41421L6.41421 7ZM16 14.75C16 13.2312 17.2312 12 18.75 12H21C21.5523 12 22 12.4477 22 13C22 13.5523 21.5523 14 21 14H18.75C18.3358 14 18 14.3358 18 14.75C18 15.1642 18.3358 15.5 18.75 15.5H19.25C20.7688 15.5 22 16.7312 22 18.25C22 19.7688 20.7688 21 19.25 21H17C16.4477 21 16 20.5523 16 20C16 19.4477 16.4477 19 17 19H19.25C19.6642 19 20 18.6642 20 18.25C20 17.8358 19.6642 17.5 19.25 17.5H18.75C17.2312 17.5 16 16.2688 16 14.75ZM15 13C15 12.4477 14.5523 12 14 12C13.4477 12 13 12.4477 13 13V18C13 18.5523 12.5523 19 12 19C11.4477 19 11 18.5523 11 18V17.6667C11 17.1144 10.5523 16.6667 10 16.6667C9.44772 16.6667 9 17.1144 9 17.6667V18C9 19.6569 10.3431 21 12 21C13.6569 21 15 19.6569 15 18V13Z" fill="#383838"></path> </g></svg>