<?xml version="1.0" encoding="UTF-8" standalone="no"?>
<svg
   viewBox="0 0 24 24"
   fill="none"
   version="1.1"
   id="svg10038"
   sodipodi:docname="json.svg"
   inkscape:version="1.1 (c68e22c387, 2021-05-23)"
   xmlns:inkscape="http://www.inkscape.org/namespaces/inkscape"
   xmlns:sodipodi="http://sodipodi.sourceforge.net/DTD/sodipodi-0.dtd"
   xmlns="http://www.w3.org/2000/svg"
   xmlns:svg="http://www.w3.org/2000/svg">
  <defs
     id="defs10042" />
  <sodipodi:namedview
     id="namedview10040"
     pagecolor="#ffffff"
     bordercolor="#666666"
     borderopacity="1.0"
     inkscape:pageshadow="2"
     inkscape:pageopacity="0"
     inkscape:pagecheckerboard="0"
     showgrid="false"
     inkscape:zoom="31.375"
     inkscape:cx="-6.9641434"
     inkscape:cy="12"
     inkscape:window-width="1920"
     inkscape:window-height="1137"
     inkscape:window-x="1192"
     inkscape:window-y="289"
     inkscape:window-maximized="1"
     inkscape:current-layer="svg10038" />
  <g
     id="SVGRepo_bgCarrier"
     stroke-width="0" />
  <g
     id="SVGRepo_tracerCarrier"
     stroke-linecap="round"
     stroke-linejoin="round" />
  <g
     id="SVGRepo_iconCarrier"
     style="fill:#333333">
    <path
       fill-rule="evenodd"
       clip-rule="evenodd"
       d="M 9.29289,1.29289 C 9.48043,1.10536 9.73478,1 10,1 h 8 c 1.6569,0 3,1.34315 3,3 v 16 c 0,1.6569 -1.3431,3 -3,3 H 6 C 4.34315,23 3,21.6569 3,20 V 8 C 3,7.73478 3.10536,7.48043 3.29289,7.29289 Z M 18,3 h -7 v 5 c 0,0.55228 -0.4477,1 -1,1 H 5 v 11 c 0,0.5523 0.44772,1 1,1 h 12 c 0.5523,0 1,-0.4477 1,-1 V 4 C 19,3.44772 18.5523,3 18,3 Z M 6.41421,7 H 9 V 4.41421 Z"
       fill="#c7c7c7"
       id="path10035"
       sodipodi:nodetypes="cssssssssccscsscsssssscccc"
       style="fill:#333333" />
  </g>
  <g
     aria-label="{...}"
     transform="matrix(0.95814133,0,0,1.2818164,-0.76937296,-2.1411846)"
     id="text12001"
     style="font-size:10.4609px;line-height:49.0354px;font-family:'[z] Arista';-inkscape-font-specification:'[z] Arista';fill:#00aad4;stroke-width:0.980709">
    <path
       d="m 9.7585153,15.989358 q 0.2929057,0 0.5021237,0.198757 0.209218,0.209218 0.209218,0.491662 0,0.303366 -0.209218,0.502124 -0.209218,0.209218 -0.5021237,0.209218 H 9.6225236 q -0.5125841,0 -0.9833246,-0.209218 Q 8.1789194,16.972683 7.8232488,16.617012 7.4780391,16.271802 7.2688211,15.811523 7.0700639,15.340782 7.0700639,14.828198 v -0.774107 q -0.3033661,0 -0.5125841,-0.198757 -0.1987571,-0.209218 -0.1987571,-0.502123 0,-0.303366 0.1987571,-0.512584 0.209218,-0.209218 0.5125841,-0.209218 v -0.774107 q 0,-0.512584 0.1987572,-0.972863 0.209218,-0.46028 0.5544277,-0.80549 Q 8.1789194,9.7232787 8.639199,9.5140607 9.1099395,9.3048427 9.6225236,9.3048427 h 0.1359917 q 0.2929057,0 0.5021237,0.209218 0.209218,0.1987571 0.209218,0.4916623 0,0.292905 -0.209218,0.502123 -0.209218,0.198757 -0.5021237,0.198757 -0.2615225,0 -0.4916623,0.146453 -0.2301398,0.146453 -0.4079751,0.376592 -0.1673744,0.219679 -0.2719834,0.491663 -0.104609,0.271983 -0.104609,0.533506 v 2.437389 q 0,0.251062 0.104609,0.491663 0.104609,0.230139 0.2719834,0.418436 0.1778353,0.177835 0.4079751,0.282444 0.2301398,0.104609 0.4916623,0.104609 z"
       id="path14087"
       style="fill:#00aad4" />
    <path
       d="m 12.185436,15.278017 q 0,0.292905 -0.209218,0.502123 -0.209218,0.209218 -0.512584,0.209218 -0.292905,0 -0.502123,-0.209218 -0.198758,-0.209218 -0.198758,-0.502123 0,-0.292905 0.198758,-0.502123 0.209218,-0.209218 0.502123,-0.209218 0.303366,0 0.512584,0.209218 0.209218,0.209218 0.209218,0.502123 z"
       id="path14089"
       style="fill:#00aad4" />
    <path
       d="m 13.890544,15.278017 q 0,0.292905 -0.209218,0.502123 -0.209218,0.209218 -0.512584,0.209218 -0.292905,0 -0.502123,-0.209218 -0.198757,-0.209218 -0.198757,-0.502123 0,-0.292905 0.198757,-0.502123 0.209218,-0.209218 0.502123,-0.209218 0.303366,0 0.512584,0.209218 0.209218,0.209218 0.209218,0.502123 z"
       id="path14091"
       style="fill:#00aad4" />
    <path
       d="m 15.595652,15.278017 q 0,0.292905 -0.209218,0.502123 -0.209218,0.209218 -0.512584,0.209218 -0.292906,0 -0.502124,-0.209218 -0.198757,-0.209218 -0.198757,-0.502123 0,-0.292905 0.198757,-0.502123 0.209218,-0.209218 0.502124,-0.209218 0.303366,0 0.512584,0.209218 0.209218,0.209218 0.209218,0.502123 z"
       id="path14093"
       style="fill:#00aad4" />
    <path
       d="m 16.882323,15.989358 q 0.261523,0 0.491663,-0.104609 0.23014,-0.104609 0.397514,-0.282444 0.177835,-0.188297 0.282444,-0.418436 0.104609,-0.240601 0.104609,-0.491663 v -2.437389 q 0,-0.261523 -0.104609,-0.533506 -0.104609,-0.271984 -0.282444,-0.491663 -0.167374,-0.230139 -0.397514,-0.376592 -0.23014,-0.146453 -0.491663,-0.146453 -0.292905,0 -0.502123,-0.198757 -0.209218,-0.209218 -0.209218,-0.502123 0,-0.2929052 0.209218,-0.4916623 0.209218,-0.209218 0.502123,-0.209218 h 0.135992 q 0.512584,0 0.972864,0.209218 0.47074,0.209218 0.81595,0.5648883 0.355671,0.34521 0.554428,0.80549 0.209218,0.460279 0.209218,0.972863 v 0.774107 q 0.303366,0 0.502123,0.209218 0.209218,0.209218 0.209218,0.512584 0,0.292905 -0.209218,0.502123 -0.198757,0.198757 -0.502123,0.198757 v 0.774107 q 0,0.512584 -0.209218,0.983325 -0.198757,0.460279 -0.554428,0.805489 -0.34521,0.355671 -0.81595,0.564889 -0.46028,0.209218 -0.972864,0.209218 h -0.135992 q -0.292905,0 -0.502123,-0.209218 -0.209218,-0.198758 -0.209218,-0.502124 0,-0.282444 0.209218,-0.491662 0.209218,-0.198757 0.502123,-0.198757 z"
       id="path14095"
       style="fill:#00aad4" />
  </g>
</svg>
