<?xml version="1.0" encoding="UTF-8" standalone="no"?>
<svg
   viewBox="0 0 24.000001 24"
   fill="none"
   version="1.1"
   id="svg509"
   sodipodi:docname="xfd_form.svg"
   inkscape:version="1.1 (c68e22c387, 2021-05-23)"
   width="24"
   height="24"
   xmlns:inkscape="http://www.inkscape.org/namespaces/inkscape"
   xmlns:sodipodi="http://sodipodi.sourceforge.net/DTD/sodipodi-0.dtd"
   xmlns="http://www.w3.org/2000/svg"
   xmlns:svg="http://www.w3.org/2000/svg">
  <defs
     id="defs513" />
  <sodipodi:namedview
     id="namedview511"
     pagecolor="#000000"
     bordercolor="#666666"
     borderopacity="1.0"
     inkscape:pageshadow="2"
     inkscape:pageopacity="0"
     inkscape:pagecheckerboard="0"
     showgrid="false"
     inkscape:zoom="16.033731"
     inkscape:cx="-7.3283006"
     inkscape:cy="8.2014598"
     inkscape:window-width="1920"
     inkscape:window-height="1137"
     inkscape:window-x="1192"
     inkscape:window-y="289"
     inkscape:window-maximized="1"
     inkscape:current-layer="svg509"
     fit-margin-top="0"
     fit-margin-left="0"
     fit-margin-right="0"
     fit-margin-bottom="0" />
  <g
     id="SVGRepo_bgCarrier"
     stroke-width="0"
     transform="translate(-5.1104222,-0.00478179)" />
  <g
     id="SVGRepo_tracerCarrier"
     stroke-linecap="round"
     stroke-linejoin="round"
     transform="translate(-5.1104222,-0.00478179)" />
  <text
     xml:space="preserve"
     style="font-style:normal;font-weight:normal;font-size:40px;line-height:1.25;font-family:sans-serif;fill:#000000;fill-opacity:1;stroke:none"
     x="-0.78122282"
     y="11.224079"
     id="text2419"><tspan
       sodipodi:role="line"
       id="tspan2417"
       x="-0.78122282"
       y="11.224079" /></text>
  <text
     xml:space="preserve"
     style="font-size:8px;line-height:1.25;font-family:sans-serif"
     x="-3.2730963"
     y="22.34935"
     id="text13427"><tspan
       sodipodi:role="line"
       id="tspan13425"
       x="-3.2730963"
       y="22.34935" /></text>
  <text
     xml:space="preserve"
     style="font-size:18.6667px;line-height:1.25;font-family:'MS Outlook';-inkscape-font-specification:'MS Outlook'"
     x="-3.3496516"
     y="2.9043176"
     id="text22011"><tspan
       sodipodi:role="line"
       id="tspan22009"
       x="-3.3496516"
       y="2.9043176" /></text>
  <text
     xml:space="preserve"
     style="font-size:5.33333px;line-height:1.25;font-family:'MS Outlook';-inkscape-font-specification:'MS Outlook'"
     x="-2.9668753"
     y="14.923491"
     id="text25681"><tspan
       sodipodi:role="line"
       id="tspan25679"
       x="-2.9668753"
       y="14.923491" /></text>
  <text
     xml:space="preserve"
     style="font-size:5.33333px;line-height:25px;font-family:'MS Outlook';-inkscape-font-specification:'MS Outlook';fill:#c7c7c7;fill-opacity:1;stroke:none"
     x="-3.1965411"
     y="4.5119777"
     id="text38204"><tspan
       sodipodi:role="line"
       id="tspan38202"
       x="-3.1965411"
       y="4.5119777" /></text>
  <text
     xml:space="preserve"
     style="font-size:8px;line-height:37.5px;font-family:'MS Outlook';-inkscape-font-specification:'MS Outlook';fill:#cccccc"
     x="-3.2730963"
     y="14.693826"
     id="text52190"><tspan
       sodipodi:role="line"
       id="tspan52188"
       x="-3.2730963"
       y="14.693826" /></text>
  <text
     xml:space="preserve"
     style="font-size:10.6667px;line-height:50px;font-family:'MS Outlook';-inkscape-font-specification:'MS Outlook';fill:#cccccc"
     x="0.7843318"
     y="18.368477"
     id="text64866"><tspan
       sodipodi:role="line"
       id="tspan64864"
       x="0.7843318"
       y="18.368477" /></text>
  <text
     xml:space="preserve"
     style="font-size:5.33333px;line-height:25px;font-family:'MS Outlook';-inkscape-font-specification:'MS Outlook'"
     x="-4.4979801"
     y="-7.3540854"
     id="text71206"><tspan
       sodipodi:role="line"
       id="tspan71204"
       x="-4.4979801"
       y="-7.3540854" /></text>
  <text
     xml:space="preserve"
     style="font-size:10.6667px;line-height:50px;font-family:'MS Outlook';-inkscape-font-specification:'MS Outlook';fill:#cccccc"
     x="-4.0386486"
     y="15.382823"
     id="text73740"><tspan
       sodipodi:role="line"
       id="tspan73738"
       x="-4.0386486"
       y="15.382823" /></text>
  <text
     xml:space="preserve"
     style="font-size:10.6667px;line-height:50px;font-family:'MS Outlook';-inkscape-font-specification:'MS Outlook'"
     x="3.0809898"
     y="18.521587"
     id="text77928"><tspan
       sodipodi:role="line"
       id="tspan77926"
       x="3.0809898"
       y="18.521587" /></text>
  <g
     id="g734"
     transform="matrix(1.0234087,0,0,1.0324616,-0.38153918,-0.39002461)">
    <g
       aria-label="XFD"
       transform="scale(0.96828544,1.0327533)"
       id="text46926"
       style="font-size:12.485px;line-height:58.5234px;font-family:'[z] Arista';-inkscape-font-specification:'[z] Arista';fill:#2ca05a;stroke-width:1.17047">
      <path
         d="m 9.5370883,15.876038 q 0.19976,0.287155 0.137335,0.636735 -0.062425,0.34958 -0.34958,0.54934 -0.287155,0.212245 -0.636735,0.14982 -0.337095,-0.07491 -0.54934,-0.362065 l -1.47323,-2.134935 -1.4981999,2.134935 q -0.19976,0.287155 -0.54934,0.362065 -0.337095,0.06243 -0.62425,-0.14982 -0.14982,-0.09988 -0.237215,-0.237215 -0.087395,-0.14982 -0.12485,-0.312125 -0.02497,-0.162305 0.012485,-0.32461 0.037455,-0.162305 0.137335,-0.312125 l 1.835295,-2.64682 -1.835295,-2.659305 q -0.212245,-0.287155 -0.14982,-0.6242497 0.07491,-0.34958 0.362065,-0.5618249 0.287155,-0.19976 0.62425,-0.137335 0.34958,0.062425 0.54934,0.3495799 l 1.4981999,2.1349347 1.47323,-2.1349347 q 0.212245,-0.2871549 0.54934,-0.3495799 0.34958,-0.062425 0.636735,0.137335 0.287155,0.2122449 0.34958,0.5618249 0.07491,0.3370947 -0.137335,0.6242497 l -1.835295,2.659305 z"
         style="fill:#2ca05a"
         id="path49739" />
      <path
         d="m 12.171421,10.919493 v 1.69796 h 1.635535 q 0.362065,0 0.59928,0.2497 0.237215,0.2497 0.237215,0.59928 0,0.34958 -0.237215,0.59928 -0.237215,0.237215 -0.59928,0.237215 h -1.635535 v 2.060025 q 0,0.362065 -0.2497,0.611765 -0.237215,0.237215 -0.59928,0.237215 -0.362065,0 -0.611765,-0.237215 -0.237215,-0.2497 -0.237215,-0.611765 v -6.279955 q 0,-0.3246097 0.237215,-0.5867947 0.2497,-0.2621849 0.611765,-0.2621849 h 3.32101 q 0.34958,0 0.586795,0.2496999 0.2497,0.2497 0.2497,0.5992797 0,0.362065 -0.2497,0.59928 -0.237215,0.237215 -0.586795,0.237215 z"
         style="fill:#2ca05a"
         id="path49741" />
      <path
         d="m 18.488827,9.2340184 q 0.54934,0 1.061225,0.2247299 0.52437,0.212245 0.911405,0.5992797 0.39952,0.387035 0.636735,0.89892 0.237215,0.511885 0.237215,1.111165 v 2.309725 q 0,0.561825 -0.237215,1.07371 -0.22473,0.511885 -0.611765,0.911405 -0.387035,0.387035 -0.911405,0.62425 -0.511885,0.22473 -1.086195,0.22473 h -1.69796 q -0.337095,0 -0.59928,-0.237215 -0.2497,-0.2497 -0.2497,-0.611765 v -6.279955 q 0,-0.3246097 0.237215,-0.5867947 0.2497,-0.2621849 0.611765,-0.2621849 z m -0.861465,1.6979596 v 4.581995 h 0.861465 q 0.237215,0 0.44946,-0.0874 0.212245,-0.08739 0.362065,-0.237215 0.162305,-0.162305 0.2497,-0.362065 0.0874,-0.212245 0.0874,-0.44946 v -2.309725 q 0,-0.237215 -0.0874,-0.436975 -0.0874,-0.212245 -0.2497,-0.362065 -0.14982,-0.162305 -0.362065,-0.2497 -0.212245,-0.08739 -0.44946,-0.08739 z"
         style="fill:#2ca05a"
         id="path49743" />
    </g>
    <path
       d="M 23.750038,20.769812 V 3.4351327 c 0,-1.2877129 -1.554838,-2.94798713 -2.817163,-2.94798713 H 3.2960369 c -1.2622736,0 -2.8171109,1.57275553 -2.8171109,2.86046843 v 17.422198 c 0,1.287687 1.4668548,2.77295 2.7291284,2.77295 H 21.020858 c 1.262299,0 2.72918,-1.485263 2.72918,-2.77295 z m -21.584301,0 V 5.7734276 h 19.89749 V 20.769812 c 0,0.617588 -0.709697,1.052141 -1.042369,1.052141 H 3.2080544 c -0.3326983,0 -1.0023628,-0.394818 -1.0423174,-1.052141 z"
       id="path37157"
       sodipodi:nodetypes="ssssssssscccsssc"
       style="fill:#333333;stroke-width:0.0438739" />
  </g>
</svg>
